<svg viewBox="0 0 800 800"><path d="M397.95 775c-8.04-7.883-18.217-16.692-22.617-19.576-4.4-2.883-10.4-7.151-13.333-9.485-2.933-2.333-6.944-5.074-8.912-6.09-1.968-1.017-8.568-4.82-14.666-8.452-6.099-3.632-17.306-9.795-24.904-13.695-7.6-3.9-17.8-9.398-22.667-12.216A1070.893 1070.893 0 00274 695.963c-7.812-4.296-24.77-15.317-41.827-27.18-17.092-11.89-43.944-38.365-58.213-57.398-4.974-6.634-6.394-8.668-14.68-21.023-13.191-19.667-32.351-62.167-36.53-81.029-.568-2.566-1.702-7.066-2.518-10-3.329-11.957-7.647-45.228-10.9-84-4.633-55.186-5.999-104.014-5.999-214.44 0-97.503.165-105.229 2.273-106.77 1.835-1.342 4.793-1.203 15.334.717 27.961 5.093 62.944 1.164 97.06-10.902 9.586-3.39 36.791-17.533 43.333-22.527 7.322-5.59 18.713-12.786 26-16.426l12-5.994c29.147-14.558 58.12-22.73 91.075-25.688 20.902-1.876 48.544.068 69.592 4.894 20.263 4.647 29.769 7.167 31.172 8.265.822.644 5.095 2.263 9.495 3.597 4.4 1.335 15.2 5.88 24 10.102 18.118 8.69 25.288 12.8 51.836 29.704 22.695 14.451 45.87 24.377 63.978 27.403 26.502 4.428 49.203 2.976 64.394-4.118 12.139-5.67 15.816-6.138 17.98-2.292 3.633 6.456.72 204.643-4.23 287.809-4.214 70.801-14.648 134.294-25.746 156.666-1.091 2.2-3.598 7.9-5.571 12.667-8.666 20.936-23.31 45.892-39.857 67.923-10.447 13.909-52.713 54.744-56.662 54.744-.532 0-5.628 3.517-11.323 7.816-9.067 6.843-22.964 15.324-43.428 26.5-3.28 1.79-7.506 4.355-9.393 5.699-1.886 1.343-6.703 3.985-10.704 5.87-4.001 1.885-9.974 4.985-13.274 6.89-37.382 21.566-53.01 32.412-68.314 47.408-12.442 12.193-19.502 18.483-20.741 18.483-.576 0-7.624-6.45-15.663-14.333zm23.205-43.554c9.551-7.04 12.99-11.29 17.9-22.113 10.931-24.105 14.236-39.065 15.166-68.666 1.95-62.007-13.339-96.864-54.55-124.367-17.771-11.86-26.727-16.159-57.671-27.672-37.612-13.994-69.045-32.505-90.86-53.506-15.977-15.382-32.763-40.317-37.332-55.455-1.931-6.4-3.588-7.9-4.913-4.448-.398 1.037-1.13 10.487-1.626 21-.715 15.128-.456 21.249 1.239 29.349 4.52 21.607 8.118 32.699 16.14 49.765 3.447 7.334 7.206 15.434 8.353 18 1.148 2.567 4.098 8.944 6.558 14.171 6.53 13.881 8.401 20.993 9.252 35.163.64 10.667.316 14.024-2.055 21.267-3.513 10.73-12.838 26.641-20.742 35.39-3.308 3.662-6.014 7.056-6.014 7.542 0 1.412 21.072 19.95 32 28.15 5.5 4.128 11.8 8.951 14 10.719 6.576 5.282 33.621 20.848 64 36.835 8.8 4.631 16.9 9.154 18 10.051 1.1.898 5.6 3.634 10 6.081 10.563 5.876 39.76 25.684 47.333 32.112 3.3 2.8 6.82 5.114 7.822 5.14 1.001.025 4.601-2.003 8-4.508zm56.5-37.855c5.323-2.791 11.178-6.025 13.012-7.185 6.237-3.948 15.315-9.085 23.333-13.205 4.4-2.261 11.076-6.006 14.835-8.323 8.934-5.504 20.478-12.582 23.82-14.605 19.429-11.754 50.656-40.138 64.112-58.273 4.625-6.233 9.606-12.882 11.069-14.774 6.03-7.801 27.138-50.12 30.036-60.217 1.88-6.553 1.965-8.958.59-16.667-.886-4.955-2.701-11.1-4.036-13.656-1.334-2.555-2.426-6.033-2.426-7.727 0-1.695-1.5-5.899-3.333-9.343-1.834-3.444-3.334-6.966-3.334-7.828 0-.861-.474-1.766-1.054-2.01-.58-.245-2.752-3.745-4.826-7.778-6.246-12.148-27.337-36.206-40.427-46.115-5.673-4.294-6.24-4.741-11.424-9.01-6.24-5.136-38.901-20.859-51.97-25.017-48.166-15.325-108.501-17.292-145.803-4.755-16.2 5.445-15.605 5.116-26.297 14.566-6.83 6.038-9.269 9.254-11.464 15.123-7.025 18.776-4.397 40.254 8.276 67.622l4.204 9.081 20.35 9.972c11.191 5.485 25.018 13.469 30.725 17.742 12.23 9.156 33.71 30.137 33.71 32.927 0 1.071.851 2.274 1.891 2.673 2.373.91 10.502 17.228 14.247 28.597 8.624 26.182 10.967 42.96 10.129 72.526-.654 23.05-2.102 32.92-8.474 57.735-.424 1.65-.406 3 .04 3s5.166-2.284 10.489-5.076zM211.872 583.74c5.536-6.46 6.77-8.41 11.638-18.406 3.02-6.198 3.591-9.19 3.698-19.333.147-14.04-1.982-21.032-13.386-43.962-6.493-13.056-11.003-23.734-19.164-45.371-6.911-18.324-10.117-58.615-6.557-82.412 1.989-13.29 9.69-43.322 14.597-56.922 2.25-6.233 5.02-14.333 6.157-18 12.29-39.632 14.84-45.907 25.304-62.271 3.422-5.35 8.836-13.066 12.031-17.145 3.196-4.079 5.773-7.979 5.729-8.667-.045-.687-2.57-3.056-5.61-5.263-3.039-2.207-7.652-7.6-10.251-11.983-4.426-7.465-4.723-8.687-4.699-19.32.031-13.437 2.795-20.769 10.793-28.63 8.072-7.933 15.204-10.598 28.515-10.654 9.754-.042 12.262.445 18 3.49 3.666 1.945 8.542 5.39 10.834 7.654 5.49 5.42 10.898 16.562 11.879 24.467.755 6.088.931 6.31 4.37 5.475 7.008-1.7 32.514-2.035 43.512-.571 10.577 1.408 27.468 6.258 40.738 11.699 7.119 2.918 12.404 5.863 29.333 16.346 12.885 7.977 59.601 32.04 62.205 32.04.786 0 5.861 1.843 11.279 4.096 12.207 5.077 30.164 9.745 45.886 11.927 11.637 1.616 16.153 1.313 32.706-2.194 5.557-1.178 6.453 1.385 5.189 14.838-1.423 15.138-3.812 25.165-9.215 38.666-6.308 15.765-16.197 27.425-29.716 35.039-4.217 2.375-7.667 4.912-7.667 5.64 0 .726-1.465 1.321-3.255 1.321-3.572 0-5.96 2.395-3.163 3.172 13.974 3.882 21.174 6.794 40.418 16.346 24.702 12.261 25.453 12.737 42.023 26.635 17.403 14.597 31.462 30.851 41.644 48.147 4.95 8.41 9 15.758 9 16.331 0 .574.83 1.732 1.844 2.573 2.584 2.145 3.33-.358 4.266-14.315.426-6.355 1.586-17.555 2.578-24.889.991-7.333 2.448-26.533 3.238-42.666.789-16.134 2.09-39.534 2.892-52 .801-12.467 1.77-59.267 2.154-104l.697-81.334-18.611-.192c-20.45-.212-30.617-1.947-54.657-9.329-19.64-6.03-45.747-18.972-60.423-29.954-2.555-1.912-6.745-4.612-9.312-6-2.566-1.389-4.966-2.85-5.333-3.248-.367-.398-6.667-4.105-14-8.238-11.802-6.652-16.15-8.803-26.667-13.187-32.87-13.704-72.284-20.317-102.666-17.227-23.502 2.39-49.54 8.047-54.564 11.853-.79.598-5.336 2.514-10.103 4.258-9.934 3.633-27.865 13.332-42.778 23.136-16.354 10.753-20.127 12.985-31.222 18.471-30.793 15.227-58.15 22.699-91.951 25.117-10.24.732-18.94 1.654-19.333 2.047-.394.394-.686 42.816-.648 94.272.081 112.894 1.849 153.797 9.428 218.221 3.899 33.147 5.644 42.306 11.193 58.734 6.697 19.827 20.344 49.563 27.18 59.22 1.538 2.176 3.398 5.177 4.131 6.67 2.355 4.797 10.47 15.376 11.795 15.376.706 0 3.44-2.517 6.077-5.594zM335.587 461c-.398-1.65-2.304-8.1-4.236-14.333-3.242-10.46-3.478-12.824-3.06-30.667.408-17.47.784-20.04 3.893-26.667 14.404-30.694 38.727-44.182 91.252-50.6 11.677-1.428 27.23-2.959 34.564-3.403 7.333-.445 21.133-1.704 30.667-2.798 39.138-4.493 53.82-11.293 64.733-29.98 5.81-9.948 6.519-12.666 2.933-11.248-3.382 1.338-22.55 6.668-30.333 8.434-35.135 7.972-85.545 4.05-122.667-9.547-11.215-4.108-29.87-12.654-37.915-17.37-19.396-11.367-34.686-15.613-56.647-15.732-17.731-.096-29.377 2.768-43.802 10.771-20.18 11.197-31.207 28.235-37.007 57.185-5.587 27.884 8.845 65.724 35.414 92.855 9.937 10.146 24.993 21.777 37.395 28.885 7.787 4.464 17.7 9.215 19.226 9.215.74 0 4.192 1.789 7.674 3.975 7.62 4.785 8.862 4.946 7.916 1.025zM518 278.729c8.8-1.533 17.059-3.117 18.353-3.52 3.686-1.15 1.595-2.762-4.703-3.625-5.676-.778-25.794-6.64-30.983-9.027-1.467-.675-6.363-2.423-10.88-3.884-4.517-1.462-19.217-8.287-32.666-15.167-24.428-12.495-31.476-16.373-47.788-26.294-7.907-4.809-21.408-11.61-31.191-15.712-12.956-5.432-41.349-7.138-59.861-3.595-10.499 2.008-26.055 8.697-34.885 15-8.35 5.959-21.05 19.072-26.617 27.484-2.812 4.247-4.855 7.98-4.54 8.294.314.315 5.04-1.263 10.5-3.507 19.407-7.973 27.818-9.483 49.261-8.844 10.633.317 22.333 1.367 26 2.334 11.203 2.954 27.686 9.58 33.734 13.56 3.153 2.076 6.355 3.774 7.114 3.774.76 0 3.4-1.904 5.867-4.23 6.163-5.814 18.063-10.437 26.865-10.437 5.477 0 8.791.94 14.315 4.057 12.574 7.096 17.667 13.85 19.012 25.21.421 3.552 1.168 7.109 1.66 7.905 2.853 4.616 45.45 4.75 71.433.224zm-238.162-88.28c4.122-2.32 7.699-4.373 7.947-4.563.249-.19 1.01-2.832 1.694-5.873 2.794-12.436-5.354-24.013-16.902-24.013-13.088 0-19.535 6.068-19.77 18.607-.166 8.788 3.07 14.026 10.931 17.691 6.65 3.101 7.47 3.007 16.1-1.85z" style="fill:#000;stroke-width:1.33333"/></svg>