<?xml version="1.0" encoding="UTF-8" standalone="no"?>
<!-- Created with Inkscape (http://www.inkscape.org/) -->

<svg
   version="1.1"
   id="svg450"
   width="800"
   height="800"
   viewBox="0 0 800 800"
   sodipodi:docname="Hufflepuff.png"
   xmlns:inkscape="http://www.inkscape.org/namespaces/inkscape"
   xmlns:sodipodi="http://sodipodi.sourceforge.net/DTD/sodipodi-0.dtd"
   xmlns="http://www.w3.org/2000/svg"
   xmlns:svg="http://www.w3.org/2000/svg">
  <defs
     id="defs454" />
  <sodipodi:namedview
     id="namedview452"
     pagecolor="#505050"
     bordercolor="#ffffff"
     borderopacity="1"
     inkscape:showpageshadow="0"
     inkscape:pageopacity="0"
     inkscape:pagecheckerboard="1"
     inkscape:deskcolor="#505050"
     showgrid="false" />
  <g
     inkscape:groupmode="layer"
     inkscape:label="Image"
     id="g456">
    <path
       style="fill:#000000;stroke-width:1.33333"
       d="m 397.94908,775 c -8.03865,-7.88333 -18.21575,-16.69233 -22.61575,-19.57556 -4.4,-2.88323 -10.4,-7.15148 -13.33333,-9.48501 -2.93333,-2.33354 -6.94364,-5.07452 -8.9118,-6.09111 -1.96815,-1.01657 -8.56815,-4.8198 -14.66667,-8.4516 -6.0985,-3.6318 -17.30529,-9.79452 -24.90397,-13.69493 -7.59868,-3.90042 -17.79868,-9.39738 -22.66667,-12.21548 -4.86798,-2.8181 -12.45089,-7.1036 -16.85089,-9.52334 -7.81203,-4.29614 -24.77083,-15.3165 -41.8268,-27.18034 -17.09191,-11.88884 -43.94393,-38.36451 -58.21347,-57.39754 -4.97365,-6.63397 -6.39382,-8.66769 -14.68026,-21.02262 -13.1909,-19.66736 -32.35082,-62.1678 -36.52932,-81.02914 -0.56862,-2.56666 -1.70196,-7.06666 -2.51855,-10 -3.3286,-11.95696 -7.64619,-45.22872 -10.90047,-84 -4.63212,-55.1868 -5.9978,-104.01436 -5.9978,-214.4412 0,-97.50235 0.16448,-105.228103 2.27307,-106.769583 1.83451,-1.341115 4.79286,-1.202743 15.33333,0.717193 27.96164,5.093184 62.94454,1.16388 97.06027,-10.901877 9.58647,-3.390459 36.79112,-17.532991 43.33333,-22.527144 7.3216,-5.589114 18.71314,-12.785886 26,-16.425886 3.66667,-1.831606 9.06667,-4.528925 12,-5.994041 29.14707,-14.558125 58.12002,-22.730069 91.0751,-25.688129 20.90168,-1.876143 48.54312,0.06789 69.59157,4.894402 20.26321,4.646452 29.76899,7.16699 31.17168,8.265432 0.82224,0.6439 5.09499,2.262482 9.49499,3.59685 4.4,1.334366 15.2,5.879888 24,10.10116 18.11809,8.691065 25.28861,12.800074 51.83633,29.704388 22.69545,14.45137 45.87035,24.377564 63.97828,27.402957 26.50168,4.427788 49.20308,2.976058 64.39329,-4.117871 12.13934,-5.669148 15.81688,-6.137934 17.98074,-2.292058 3.6326,6.456336 0.71953,204.643007 -4.23039,287.808747 -4.21401,70.80129 -14.64804,134.29409 -25.74565,156.66666 -1.09128,2.2 -3.59839,7.9 -5.57135,12.66667 -8.66572,20.93636 -23.30965,45.89197 -39.85739,67.92343 -10.44662,13.90849 -52.71256,54.74324 -56.6619,54.74324 -0.53182,0 -5.62714,3.51744 -11.32294,7.81653 -9.06646,6.84323 -22.96376,15.32339 -43.42777,26.49975 -3.27913,1.79089 -7.50575,4.35536 -9.39248,5.69882 -1.88672,1.34347 -6.70379,3.98506 -10.70459,5.8702 -4.0008,1.88514 -9.97418,4.98524 -13.27418,6.88914 -37.38151,21.56676 -53.00979,32.41268 -68.31391,47.40938 -12.44199,12.19207 -19.50129,18.48284 -20.74085,18.48284 -0.57588,0 -7.62416,-6.45 -15.66283,-14.33333 z m 23.20561,-43.55401 c 9.55156,-7.04007 12.99126,-11.28935 17.89968,-22.11266 10.93198,-24.10549 14.23619,-39.06498 15.16687,-68.66666 1.94951,-62.00698 -13.33915,-96.86342 -54.5494,-124.36662 C 381.89919,504.4388 372.94281,500.14143 342,488.62839 c -37.61171,-13.99436 -69.04528,-32.50543 -90.85967,-53.5068 -15.97688,-15.38143 -32.76309,-40.31647 -37.33213,-55.45492 -1.93141,-6.3993 -3.58855,-7.89955 -4.91307,-4.44794 -0.39792,1.03698 -1.12976,10.48698 -1.6263,21 -0.71452,15.12799 -0.45619,21.24912 1.23868,29.349 4.52126,21.60739 8.11858,32.69886 16.1406,49.7656 3.44694,7.33334 7.20592,15.43334 8.35328,18 1.14734,2.56667 4.0981,8.94354 6.55721,14.17082 6.53009,13.88082 8.40147,20.99282 9.25232,35.16252 0.64053,10.66718 0.31615,14.02426 -2.05496,21.26697 -3.51272,10.72983 -12.83835,26.64184 -20.74168,35.39083 -3.30785,3.66178 -6.01428,7.0554 -6.01428,7.54134 0,1.41239 21.072,19.94979 32,28.15095 5.5,4.1276 11.8,8.95064 14,10.71787 6.57615,5.28253 33.6214,20.84848 64,36.83536 8.8,4.63102 16.9,9.15418 18,10.05145 1.1,0.89727 5.6,3.63371 10,6.08097 10.56299,5.8751 39.76089,25.68312 47.33333,32.11122 3.3,2.80129 6.81962,5.11421 7.82136,5.13981 1.00176,0.0256 4.60176,-2.00275 8,-4.50745 z m 56.5,-37.8549 c 5.32326,-2.79156 11.17864,-6.02488 13.01198,-7.18514 6.23764,-3.94767 15.3152,-9.08498 23.33333,-13.20516 4.4,-2.26099 11.07587,-6.00611 14.83525,-8.3225 8.93348,-5.50446 20.4779,-12.58264 23.82043,-14.6049 19.42837,-11.75439 50.65553,-40.138 64.11139,-58.27339 4.62492,-6.23333 9.60586,-12.88177 11.06877,-14.77431 6.03015,-7.8011 27.13813,-50.11898 30.03596,-60.21694 1.88051,-6.55294 1.96553,-8.95783 0.58928,-16.66667 -0.88459,-4.95481 -2.70021,-11.09987 -4.03471,-13.65567 C 653.09187,484.1306 652,480.65312 652,478.95867 c 0,-1.69446 -1.5,-5.89856 -3.33333,-9.34247 -1.83334,-3.44391 -3.33334,-6.96643 -3.33334,-7.82781 0,-0.86139 -0.47465,-1.76616 -1.05477,-2.01062 -0.58012,-0.24444 -2.75153,-3.74444 -4.82536,-7.77777 -6.24617,-12.14801 -27.33675,-36.20595 -40.42699,-46.11488 -5.67329,-4.29452 -6.23996,-4.7414 -11.42405,-9.0092 -6.23953,-5.13668 -38.90164,-20.85969 -51.97057,-25.01779 -48.16559,-15.32468 -108.50087,-17.29237 -145.80266,-4.755 -16.20028,5.44503 -15.60526,5.11544 -26.29646,14.56574 -6.83068,6.03786 -9.26903,9.25426 -11.46492,15.12333 -7.02487,18.77563 -4.39624,40.25381 8.27596,67.62196 l 4.20466,9.08081 20.34895,9.97243 c 11.19191,5.48484 25.01857,13.46843 30.72591,17.74132 12.23,9.15616 33.7103,30.13763 33.7103,32.92741 0,1.07116 0.85092,2.2741 1.89094,2.67319 2.37277,0.91051 10.50184,17.22775 14.24641,28.59641 8.62396,26.18262 10.96704,42.9596 10.129,72.5259 -0.65333,23.04954 -2.10216,32.92117 -8.47357,57.73504 -0.42368,1.65 -0.40575,3 0.0399,3 0.44558,0 5.16552,-2.284 10.48876,-5.07558 z M 211.87209,583.73881 c 5.5362,-6.45988 6.76898,-8.40953 11.63787,-18.40548 3.01912,-6.19833 3.59141,-9.1906 3.69767,-19.33333 0.14706,-14.03907 -1.98199,-21.03159 -13.38535,-43.96175 -6.49288,-13.05605 -11.00327,-23.73436 -19.16441,-45.37158 -6.91124,-18.3234 -10.11683,-58.61492 -6.55662,-82.41127 1.98834,-13.28999 9.6896,-43.32215 14.59676,-56.92207 2.24912,-6.23333 5.01964,-14.33333 6.15671,-18 12.29035,-39.63237 14.8404,-45.90773 25.30461,-62.27148 3.42163,-5.35068 8.83554,-13.06586 12.03091,-17.14484 3.19537,-4.07896 5.77309,-7.97896 5.72829,-8.66666 -0.0448,-0.6877 -2.56869,-3.05615 -5.60862,-5.26326 -3.03995,-2.20709 -7.65328,-7.59928 -10.25187,-11.98264 -4.42587,-7.46565 -4.72307,-8.68769 -4.69875,-19.32044 0.0307,-13.43661 2.79478,-20.76856 10.79283,-28.62918 8.07233,-7.93363 15.20431,-10.59866 28.51455,-10.6551 9.75433,-0.0413 12.26216,0.44482 18,3.4896 3.66666,1.94571 8.54233,5.39011 10.83482,7.65422 5.4889,5.42094 10.89795,16.56272 11.87834,24.46741 0.75509,6.08815 0.93153,6.30921 4.37018,5.47511 7.00791,-1.69991 32.51411,-2.03464 43.5123,-0.57106 10.5768,1.40751 27.46784,6.2581 40.73769,11.69862 7.11904,2.91873 12.40351,5.8635 29.33333,16.34597 12.8847,7.97783 59.60104,32.0404 62.20494,32.0404 0.78556,0 5.86082,1.8434 11.27834,4.09644 12.20788,5.07701 30.16486,9.74437 45.88676,11.92684 11.6368,1.61537 16.15266,1.31233 32.7058,-2.19473 5.5566,-1.17727 6.4527,1.3853 5.18867,14.83812 -1.42239,15.1381 -3.81181,25.16492 -9.21444,38.66666 -6.30812,15.76467 -16.19737,27.42495 -29.71673,35.03855 C 543.45,340.74655 540,343.28433 540,344.0114 c 0,0.72707 -1.46459,1.32193 -3.25464,1.32193 -3.57228,0 -5.96055,2.39488 -3.1632,3.17196 13.97395,3.88186 21.17372,6.79355 40.41784,16.34563 24.70224,12.26128 25.45299,12.73712 42.02328,26.63524 17.40284,14.59639 31.46172,30.85096 41.64339,48.14716 4.95,8.40885 9,15.75788 9,16.33116 0,0.57328 0.82993,1.73112 1.84429,2.57296 2.58364,2.14423 3.32944,-0.35848 4.26592,-14.31512 0.42645,-6.35561 1.58657,-17.55565 2.57805,-24.88899 0.99147,-7.33333 2.44846,-26.53333 3.23772,-42.66666 0.78928,-16.13334 2.09074,-39.53334 2.89214,-52 0.80138,-12.46667 1.77077,-59.26667 2.15418,-104 l 0.69711,-81.33334 -18.61125,-0.19266 c -20.44952,-0.21171 -30.61663,-1.94692 -54.65652,-9.3282 -19.63951,-6.03018 -45.74703,-18.97285 -60.4235,-29.954661 -2.55465,-1.911538 -6.74481,-4.611538 -9.31148,-6 C 538.76667,92.469348 536.36667,91.007855 536,90.610047 535.63333,90.21224 529.33333,86.505011 522,82.37176 510.19819,75.719963 505.84913,73.569391 495.33333,69.185293 462.46208,55.481087 423.04948,48.867715 392.66667,51.957988 c -23.50159,2.390376 -49.54032,8.046633 -54.5634,11.852523 -0.79014,0.598664 -5.3366,2.514933 -10.10327,4.258376 -9.93412,3.633476 -27.8654,13.331648 -42.77771,23.136412 C 268.8684,101.9579 265.09497,104.19026 254,109.67636 c -30.79317,15.22622 -58.1496,22.69861 -91.95111,25.11639 -10.23977,0.73242 -18.93977,1.65388 -19.33333,2.04765 -0.39356,0.39377 -0.68507,42.81577 -0.64781,94.27111 0.0817,112.89488 1.84888,153.79765 9.42784,218.22182 3.89941,33.14659 5.6449,42.30528 11.19357,58.73327 6.6968,19.82725 20.34376,49.56311 27.17892,59.22109 1.53923,2.17491 3.39859,5.17644 4.13192,6.67008 2.35471,4.79603 10.47084,15.37556 11.79543,15.37556 0.70516,0 3.43965,-2.51753 6.07666,-5.59452 z M 335.58739,461 c -0.39791,-1.65 -2.30427,-8.1 -4.23635,-14.33333 -3.24199,-10.45943 -3.47799,-12.82412 -3.06049,-30.66667 0.40876,-17.46973 0.78408,-20.04021 3.89365,-26.66667 14.40389,-30.69454 38.72724,-44.18229 91.25216,-50.60101 11.67667,-1.42692 27.23031,-2.95811 34.56364,-3.40263 7.33333,-0.44453 21.13333,-1.70362 30.66667,-2.798 39.13809,-4.49282 53.81954,-11.2922 64.73377,-29.97993 5.80987,-9.94785 6.5186,-12.66581 2.93289,-11.24737 -3.38237,1.338 -22.55076,6.66712 -30.33333,8.43316 -35.13503,7.97288 -85.54491,4.04958 -122.66667,-9.5469 -11.21533,-4.1078 -29.86969,-12.6532 -37.91576,-17.36888 -19.39536,-11.3673 -34.68526,-15.61386 -56.64632,-15.73274 -17.7316,-0.096 -29.37717,2.76773 -43.80198,10.77116 -20.18114,11.19722 -31.20731,28.2352 -37.00754,57.18516 -5.58658,27.88366 8.84547,65.72369 35.41443,92.85453 9.93645,10.1466 24.99292,21.77697 37.39472,28.88559 7.78735,4.46364 17.70028,9.21453 19.22652,9.21453 0.73909,0 4.19203,1.7886 7.6732,3.97467 7.62004,4.78514 8.86231,4.94604 7.91679,1.02533 z M 518,278.72876 c 8.8,-1.53273 17.05871,-3.11693 18.35269,-3.52044 3.6868,-1.14967 1.59579,-2.76155 -4.70226,-3.62479 -5.67626,-0.77801 -25.79451,-6.63925 -30.98376,-9.02678 -1.46667,-0.6748 -6.36242,-2.42267 -10.87944,-3.88415 -4.51703,-1.46147 -19.21703,-8.28625 -32.66667,-15.16617 -24.42713,-12.49527 -31.47593,-16.37378 -47.78723,-26.29422 -7.90726,-4.80916 -21.40833,-11.60996 -31.1913,-15.71178 -12.95638,-5.43239 -41.34892,-7.13795 -59.86147,-3.59591 -10.49835,2.00867 -26.05435,8.69765 -34.88465,15.00019 -8.34946,5.95933 -21.04906,19.07261 -26.61722,27.48426 -2.81152,4.24727 -4.85452,7.97964 -4.54,8.29416 0.31451,0.31452 5.03948,-1.26356 10.49991,-3.50682 19.40733,-7.97299 27.81853,-9.48307 49.2614,-8.84402 10.63333,0.31691 22.33333,1.36708 26,2.33374 11.20312,2.95349 27.68625,9.57922 33.73351,13.55986 3.15342,2.07576 6.3551,3.77411 7.11485,3.77411 0.75973,0 3.39967,-1.90375 5.86653,-4.23056 6.16336,-5.81344 18.06327,-10.43611 26.86514,-10.43611 5.47712,0 8.79105,0.93911 14.31497,4.05663 12.57407,7.09636 17.6668,13.84935 19.01236,25.21044 0.4206,3.55136 1.16739,7.10852 1.65951,7.90479 2.85269,4.61576 45.45044,4.74908 71.43313,0.22357 z M 279.83769,190.44889 c 4.1226,-2.31978 7.69892,-4.37306 7.94738,-4.56285 0.24845,-0.18979 1.01062,-2.83249 1.6937,-5.87267 C 292.27313,167.57661 284.12517,156 272.57745,156 c -13.08809,0 -19.53553,6.06799 -19.771,18.60737 -0.16502,8.788 3.07118,14.02515 10.93183,17.691 6.64887,3.10072 7.46975,3.00642 16.09941,-1.84948 z"
       id="path577" />
  </g>
</svg>
