<svg viewBox="0 0 800 800"><path style="fill:#000;stroke-width:1.33333" d="M399.579 780.692c-30.589-28.487-42.546-36.132-109.043-69.723-39.9-20.155-65.476-34.596-82.006-46.302-30.823-21.828-62.359-54.89-80.145-84.022-22.835-37.403-34.084-66.267-41.041-105.312C83.253 452.374 78.162 394.68 75.755 344c-2.328-49.019-2.465-243.157-.174-245.448 1.22-1.22 6.329-1.038 22.324.792 17.286 1.977 27.356 2.243 60.42 1.596 39.826-.779 57.827-2.333 87.675-7.567 45.23-7.933 92.71-25.441 122.188-45.06 17.462-11.62 19.455-13.073 27.5-20.043 4.404-3.815 9.175-6.937 10.603-6.937 1.428 0 8.246 3.778 15.152 8.395 23.405 15.647 47.625 28.208 71.89 37.283 6.967 2.606 17.639 6.61 23.716 8.899C540.67 84.806 586.363 94.377 622 97.894c40.169 3.964 62.305 3.945 108.937-.09 8.594-.744 8.962-.653 9.616 2.378 2.567 11.896.909 164.091-2.561 235.151-5.344 109.434-13.701 163.902-30.992 202-13.94 30.716-33.885 62.994-49.02 79.334a7603.701 7603.701 0 01-11.944 12.852c-7.258 7.791-29.71 27.083-37.977 32.632a454.92 454.92 0 00-9.392 6.516c-18.282 13.096-49.486 30.445-98 54.486-2.934 1.454-10.824 5.839-17.535 9.745-6.71 3.906-12.552 7.102-12.981 7.102-.72 0-3.173 1.577-19.608 12.612-6.629 4.45-27.763 21.529-30.02 24.258-2.546 3.08-11.488 9.797-13.043 9.797-.817 0-4.373-2.689-7.901-5.975zm14.907-48.359c2.605-2.016 6.665-4.866 9.022-6.333l22.055-13.726c9.774-6.082 18.67-11.633 19.77-12.336 1.1-.703 3.5-1.918 5.334-2.7 3.444-1.471 14.499-9.491 22.666-16.446 8.867-7.55 47.358-47.104 54.667-56.177 6.706-8.325 20-27.007 20-28.107 0-.253 2.395-4.375 5.323-9.158 14.247-23.277 25.387-54.405 29.474-82.361 2.393-16.362.83-62.692-2.551-75.656-1.435-5.5-3.327-13.483-4.204-17.74-1.581-7.673-10.36-35.68-11.561-36.888-1.402-1.407-3.108 3.667-3.126 9.295-.063 19.528-12.456 63.48-25 88.667-8.559 17.183-26.807 44.534-35.631 53.404-1.498 1.506-4.559 4.806-6.801 7.334-5.604 6.315-21.929 20.753-30.32 26.814-3.815 2.756-8.436 6.142-10.27 7.524-1.833 1.382-6.123 4.06-9.534 5.951-3.41 1.891-8.51 4.87-11.333 6.62-2.823 1.751-7.233 3.997-9.8 4.991-2.566.995-5.266 2.242-6 2.772-3.051 2.205-25.056 10.592-39.333 14.99-52.487 16.171-109.854 18.678-161.333 7.05-8.433-1.904-21.333-5.582-28.667-8.173-7.333-2.59-14.383-5.057-15.666-5.482-4.636-1.536-2.15 2.32 7.333 11.375 27.41 26.173 52.74 42.238 118.333 75.05 12.834 6.419 27.534 14.092 32.667 17.051 5.133 2.96 10.833 6.128 12.667 7.042 1.833.914 5.433 3.028 8 4.699 2.566 1.67 5.566 3.61 6.666 4.31 6.475 4.122 21.256 14.238 24.667 16.882 5.142 3.984 6.732 3.916 12.486-.538zm139.268-79.161c8.427-4.325 34.43-22.822 46.486-33.066 11.894-10.107 30.724-30.175 37.093-39.533 1.1-1.616 4.518-6.525 7.595-10.91 14.138-20.144 30.706-57.152 36.47-81.459 3.296-13.905 6.87-37.357 5.926-38.885-.39-.63-3.547.145-7.016 1.724-5.01 2.28-8.914 2.88-18.975 2.914-11.386.039-13.407-.343-20-3.773-4.033-2.099-9.283-5.279-11.666-7.068-2.384-1.788-4.396-2.771-4.471-2.184-.076.587-.02 13.862.122 29.5.282 30.787-1.21 43.752-7.542 65.568-4.493 15.478-12.99 37.224-19.396 49.642-7.38 14.307-30.292 47.617-38.763 56.358-5.85 6.036-10.886 12.667-9.62 12.667.465 0 2.156-.673 3.757-1.495zm-220.638-56.537c55.446-6.67 99.713-23.043 134.654-49.803 5.385-4.124 11.69-8.768 14.01-10.32 7.525-5.028 27.211-27.474 39.302-44.809 19.049-27.312 30.686-57.187 37.8-97.036 2.548-14.279 2.145-54.438-.717-71.268-2.369-13.933-7.915-34.646-9.967-37.22-.663-.832-1.643-3.012-2.177-4.846-.91-3.117-7.645-17.32-32.248-68-16.098-33.162-17.005-34.868-19.106-35.937-1.1-.56-14.6-4.15-30-7.978-15.4-3.829-33.307-8.405-39.794-10.169-8.01-2.178-12.529-2.813-14.087-1.98-2.932 1.57-15.05 24.122-14.179 26.39.514 1.34 5.493 1.541 23.024.932 22.654-.787 27.137-.121 24.857 3.688-2.178 3.64-26.001 23.721-28.14 23.721-1.176 0-3.239-.996-4.585-2.214-1.345-1.218-2.775-1.885-3.178-1.482s5.402 12.65 12.899 27.214c48.779 94.768 53.133 106.223 53.14 139.815.005 22.31-3.613 36.927-13.2 53.334-2.572 4.4-5.01 8.3-5.418 8.666-.408.367-2.825 3.367-5.372 6.667-23.325 30.22-62.576 48-105.967 48-46.408 0-94.755-21.854-124.966-56.488-5.336-6.116-12.04-14.659-14.9-18.983-2.859-4.324-6.192-9.362-7.407-11.196-1.215-1.833-4.249-8.133-6.742-14-2.493-5.866-4.984-11.297-5.536-12.068-3.23-4.515-10.694-34.689-13.225-53.46-2.378-17.639-2.711-24.78-2.01-43.138.46-12.1 1.5-26.677 2.307-32.394.809-5.716 1.136-10.726.73-11.134-.75-.748-9.117 5.395-15.703 11.528-1.969 1.833-6.498 5.433-10.064 8-3.566 2.566-7.161 5.3-7.988 6.075-.827.774-4.675 4.074-8.551 7.333-3.876 3.259-9.14 7.717-11.7 9.908l-4.651 3.983.91 34.684c1.572 59.803 5.655 114.21 10.96 146.017 5.196 31.157 9.47 44.24 24.004 73.47 9.339 18.784 10.05 19.456 32.275 30.503 29.706 14.765 60.355 23.168 98.923 27.122 12.117 1.242 36.508.711 51.783-1.127zM370 469.925c16.613-3.65 20.265-4.881 30-10.11 29.509-15.85 46.388-37.878 52.796-68.903 4.076-19.735-.647-45.27-13.554-73.282-1.783-3.87-3.242-7.284-3.242-7.586 0-.302-5.038-9.895-11.196-21.316-16.656-30.895-22.133-36.136-46.137-44.144l-15.334-5.116L340 239.45c-23.444-.018-44.044 2.226-61.504 6.698-7.6 1.948-10.496 1.7-10.496-.895 0-1.407 11.276-19.397 16.664-26.586 1.924-2.567 5.566-8.197 8.093-12.511 8.075-13.783 16.569-24.775 19.636-25.412 1.617-.335 6.84-1.504 11.607-2.596 8.29-1.9 22.565-3.81 43.856-5.864l9.857-.95 9.5-16.976c5.225-9.337 10.465-17.941 11.645-19.12 1.97-1.971 3.213-1.872 15.31 1.22 21.653 5.534 50.576 12.684 71.832 17.757 11 2.625 21.404 5.43 23.119 6.235 3.111 1.458 8.425 11.745 44.874 86.883 7.114 14.667 14.77 31.767 17.013 38 2.243 6.234 4.884 12.517 5.869 13.964.985 1.446 1.8 3.546 1.809 4.666.009 1.12 1.842 5.637 4.073 10.037 2.232 4.4 6.784 14.9 10.117 23.333 3.332 8.434 6.85 17.134 7.815 19.334.966 2.2 3.655 9.1 5.974 15.333 13.126 35.273 37.073 62.606 54.893 62.654 11.124.03 27.93-11.695 30.317-21.15.671-2.66 1.893-17.737 2.714-33.504.82-15.767 2.073-34.967 2.782-42.667 1.87-20.303 4.173-121.46 3.702-162.666l-.404-35.334-14-.285c-39.536-.805-80.974-4.604-112.667-10.33-27.968-5.053-71.854-17.241-86.868-24.125-2.311-1.06-5.126-1.926-6.255-1.926-1.129 0-2.37-.513-2.757-1.14-.388-.627-4.473-2.512-9.079-4.189-9.6-3.495-28.117-12.522-46.11-22.476-6.822-3.774-13.482-6.862-14.8-6.862-1.319 0-4.912 1.821-7.984 4.047C366.744 96.244 316.179 116.74 264 127.23c-39.711 7.984-61.56 10.133-111.215 10.94-20.469.334-37.674.89-38.236 1.237-.56.347-1.083 27.022-1.16 59.279-.122 51.205.113 58.648 1.853 58.648 1.884 0 23.528-16.748 36.915-28.565 3.386-2.99 11.398-9.635 17.805-14.768 6.407-5.133 16.142-13.083 21.634-17.667 5.492-4.583 10.83-8.333 11.861-8.333 2.252 0 2.47 5.356.49 12.009-3.351 11.255-10.626 50.025-11.892 63.376-4.71 49.66 2.003 89.016 21.931 128.587 13.936 27.672 37.018 50.353 66.014 64.865 18.501 9.26 34.167 13.652 53.387 14.966 16.858 1.153 24.632.754 36.613-1.878zm23.333-243.336c0-2.083-16.046-32.407-17.817-33.67-3.263-2.328-42.332 2.064-51.14 5.748-3.159 1.321-15.983 19.504-14.677 20.81.428.428 14.17.908 30.54 1.066 28.16.273 30.299.474 39.761 3.741 11.425 3.945 13.333 4.275 13.333 2.305z"/></svg>