<?xml version="1.0" encoding="UTF-8" standalone="no"?>
<!-- Created with Inkscape (http://www.inkscape.org/) -->

<svg
   version="1.1"
   id="svg660"
   width="800"
   height="800"
   viewBox="0 0 800 800"
   sodipodi:docname="Ravenclaws.png"
   xmlns:inkscape="http://www.inkscape.org/namespaces/inkscape"
   xmlns:sodipodi="http://sodipodi.sourceforge.net/DTD/sodipodi-0.dtd"
   xmlns="http://www.w3.org/2000/svg"
   xmlns:svg="http://www.w3.org/2000/svg">
  <defs
     id="defs664" />
  <sodipodi:namedview
     id="namedview662"
     pagecolor="#505050"
     bordercolor="#ffffff"
     borderopacity="1"
     inkscape:showpageshadow="0"
     inkscape:pageopacity="0"
     inkscape:pagecheckerboard="1"
     inkscape:deskcolor="#505050"
     showgrid="false" />
  <g
     inkscape:groupmode="layer"
     inkscape:label="Image"
     id="g666">
    <path
       style="fill:#000000;stroke-width:1.33333"
       d="M 399.57871,780.69188 C 368.99048,752.20528 357.03336,744.5598 290.536,710.96907 250.63663,690.81415 225.05963,676.37283 208.52989,664.66667 177.70745,642.83859 146.17148,609.77689 128.38535,580.64467 105.54967,543.24173 94.301097,514.37836 87.343636,475.33333 83.252532,452.3742 78.16168,394.68009 75.754957,344 73.427116,294.981 73.289703,100.84333 75.581224,98.551984 c 1.219343,-1.219245 6.328476,-1.038045 22.324097,0.791745 17.285469,1.977341 27.356019,2.243461 60.418769,1.596581 39.82739,-0.77924 57.82756,-2.332877 87.67591,-7.567535 45.23043,-7.932294 92.70973,-25.441228 122.18787,-45.059198 17.46181,-11.620994 19.45534,-13.073969 27.5001,-20.043264 4.40411,-3.815338 9.17547,-6.93698 10.60303,-6.93698 1.42756,0 8.24608,3.777595 15.15228,8.394656 23.40461,15.646895 47.62459,28.207747 71.89005,37.2833 6.96667,2.605611 17.6386,6.609926 23.71542,8.898478 23.62208,8.896178 69.31384,18.467148 104.95125,21.983952 40.16881,3.963971 62.30496,3.945761 108.93663,-0.08961 8.59422,-0.743722 8.96266,-0.652613 9.61648,2.377941 2.56641,11.89594 0.90854,164.09111 -2.56151,235.15129 -5.34393,109.43386 -13.70067,163.90188 -30.99175,202 -13.94058,30.71584 -33.88478,62.99376 -49.01925,79.33333 -2.71699,2.93333 -8.09197,8.71683 -11.94443,12.8522 -7.25836,7.79141 -29.70984,27.08344 -37.97669,32.63247 -2.59939,1.7448 -6.82615,4.6767 -9.39281,6.51533 -18.2819,13.09621 -49.48551,30.44495 -98,54.48648 -2.93334,1.45363 -10.82387,5.83883 -17.53451,9.74491 C 476.42151,736.80412 470.57988,740 470.15075,740 c -0.72034,0 -3.17235,1.57716 -19.60783,12.61202 -6.62881,4.45062 -27.76301,21.52861 -30.01908,24.25764 -2.54671,3.0806 -11.48868,9.79701 -13.04337,9.79701 -0.8174,0 -4.3732,-2.68865 -7.90176,-5.97479 z m 14.9068,-48.35855 c 2.60546,-2.01666 6.6654,-4.86666 9.02206,-6.33333 2.35667,-1.46667 12.28156,-7.64319 22.05531,-13.72561 9.77375,-6.08243 18.67045,-11.63386 19.77045,-12.33652 1.1,-0.70267 3.5,-1.91788 5.33334,-2.7005 3.4448,-1.47052 14.49908,-9.4907 22.66666,-16.44532 8.86628,-7.54952 47.35732,-47.1041 54.66667,-56.17716 6.70648,-8.3247 20,-27.00656 20,-28.1067 0,-0.25367 2.39544,-4.37491 5.3232,-9.1583 14.24675,-23.27642 25.38652,-54.40473 29.47428,-82.36112 2.39235,-16.36133 0.82959,-62.69174 -2.55192,-75.65544 -1.43464,-5.5 -3.32617,-13.48294 -4.2034,-17.73986 -1.58129,-7.6736 -10.35956,-35.68128 -11.56163,-36.88819 -1.40124,-1.40689 -3.10757,3.66704 -3.12574,9.29472 -0.0631,19.52816 -12.45566,63.48011 -25.00022,88.66667 -8.5586,17.18366 -26.80658,44.53428 -35.63086,53.40457 -1.49804,1.50584 -4.55848,4.80584 -6.80099,7.33333 -5.60375,6.3159 -21.92839,20.75371 -30.31904,26.81472 -3.81536,2.75603 -8.43701,6.14183 -10.27035,7.52399 -1.83333,1.38216 -6.1236,4.06012 -9.53392,5.95101 -3.41033,1.8909 -8.51033,4.87008 -11.33333,6.6204 -2.82301,1.75032 -7.23275,3.99612 -9.79941,4.99066 -2.56667,0.99453 -5.26667,2.24182 -6,2.77176 -3.05166,2.20522 -25.05666,10.59142 -39.33334,14.99008 -52.48694,16.17129 -109.85437,18.67824 -161.33333,7.05022 -8.43333,-1.9049 -21.33333,-5.58276 -28.66667,-8.173 C 200,599.35417 192.95,596.88707 191.66667,596.46193 c -4.6354,-1.53554 -2.14976,2.32015 7.33333,11.37535 27.40928,26.17255 52.73943,42.23735 118.33333,75.049 12.83334,6.41953 27.53334,14.09303 32.66667,17.05219 5.13333,2.95917 10.83333,6.12797 12.66667,7.04177 1.83333,0.91381 5.43333,3.02809 8,4.6984 2.56666,1.67031 5.56666,3.60995 6.66666,4.31032 6.47436,4.12219 21.25535,14.23825 24.66667,16.88176 5.14192,3.98461 6.73163,3.91619 12.48551,-0.53739 z m 139.26881,-79.16136 c 8.4264,-4.32466 34.43028,-22.82154 46.48559,-33.06577 11.8938,-10.10697 30.72364,-30.17519 37.09342,-39.53292 1.1,-1.61599 4.51779,-6.52571 7.59508,-10.91048 14.13748,-20.14421 30.70574,-57.15176 36.46899,-81.45868 3.29685,-13.90467 6.87149,-37.35701 5.92697,-38.88529 -0.38969,-0.63052 -3.54709,0.14552 -7.01645,1.72453 -5.01039,2.28039 -8.91345,2.87976 -18.97459,2.91379 -11.38677,0.0385 -13.40765,-0.34271 -20,-3.77296 -4.03333,-2.0987 -9.28333,-5.27923 -11.66666,-7.06786 -2.38334,-1.78862 -4.39523,-2.7715 -4.47088,-2.18418 -0.0756,0.58732 -0.0204,13.86216 0.12266,29.49962 0.28175,30.7869 -1.2097,43.752 -7.5427,65.56823 -4.4931,15.47804 -12.98946,37.22381 -19.39576,49.64191 -7.38068,14.30684 -30.29174,47.61734 -38.76326,56.35809 -5.85024,6.03617 -10.88585,12.66667 -9.61985,12.66667 0.46481,0 2.15567,-0.67262 3.75745,-1.4947 z M 333.11579,596.63533 c 55.44645,-6.67074 99.71306,-23.0433 134.65404,-49.80348 5.38498,-4.12418 11.68972,-8.7677 14.01052,-10.31892 7.52445,-5.02933 27.21074,-27.47486 39.30129,-44.80977 19.04928,-27.31204 30.68684,-57.18683 37.80003,-97.03649 2.54873,-14.2786 2.1449,-54.43736 -0.71666,-71.26784 -2.36896,-13.9332 -7.91542,-34.64612 -9.96664,-37.21982 -0.66293,-0.83178 -1.64297,-3.01234 -2.17786,-4.84568 -0.90939,-3.11694 -7.64492,-17.32018 -32.24727,-68 -16.09863,-33.16252 -17.00572,-34.86865 -19.10657,-35.93736 -1.1,-0.55957 -14.6,-4.14986 -30,-7.9784 -15.4,-3.82854 -33.30706,-8.4043 -39.79344,-10.16834 -8.00971,-2.17834 -12.52927,-2.81356 -14.08694,-1.97992 -2.93204,1.56918 -15.04962,24.12126 -14.17933,26.38922 0.51416,1.33987 5.49279,1.54155 23.02452,0.93267 22.65327,-0.78673 27.13695,-0.12147 24.85696,3.68787 C 442.31041,191.91812 418.48679,212 416.34772,212 c -1.17576,0 -3.23867,-0.99632 -4.58424,-2.21405 -1.34557,-1.21772 -2.77596,-1.88458 -3.17864,-1.4819 -0.40269,0.40268 5.40171,12.649 12.89867,27.21406 48.77933,94.7683 53.13306,106.22326 53.1403,139.81522 0.005,22.31026 -3.61296,36.92687 -13.20053,53.33334 -2.57125,4.4 -5.00888,8.3 -5.41693,8.66666 C 455.59829,437.7 453.18052,440.7 450.63351,444 c -23.3247,30.22036 -62.57578,48 -105.96684,48 -46.40803,0 -94.75458,-21.85392 -124.96603,-56.48795 -5.33535,-6.11638 -12.03999,-14.65874 -14.8992,-18.98304 -2.85921,-4.32429 -6.19248,-9.36234 -7.40725,-11.19568 -1.21479,-1.83333 -4.24872,-8.13333 -6.7421,-14 -2.49336,-5.86666 -4.98446,-11.29726 -5.53578,-12.06798 -3.22958,-4.51487 -10.69412,-34.68894 -13.22526,-53.46063 -2.37832,-17.63845 -2.71125,-24.78035 -2.011,-43.13805 0.46155,-12.1 1.50034,-26.67703 2.3084,-32.39339 0.80807,-5.71636 1.13602,-10.7266 0.72876,-11.13385 -0.74832,-0.74831 -9.1165,5.39485 -15.70233,11.52724 -1.96891,1.83333 -6.49771,5.43333 -10.06401,8 -3.56631,2.56666 -7.16088,5.30049 -7.98794,6.07516 -0.82705,0.77466 -4.675,4.07466 -8.55101,7.33333 -3.87601,3.25867 -9.14069,7.7172 -11.69928,9.90787 l -4.65199,3.98304 0.91103,34.68362 c 1.57085,59.80379 5.65423,114.21111 10.95887,146.01698 5.19646,31.1572 9.47094,44.24041 24.00404,73.47081 9.33906,18.78364 10.05036,19.45587 32.27556,30.50277 29.7058,14.7651 60.35484,23.168 98.92318,27.12131 12.11643,1.24195 36.50783,0.71145 51.78246,-1.12623 z M 370,469.92463 c 16.61311,-3.6504 20.26512,-4.8811 30,-10.10968 29.5086,-15.84904 46.38755,-37.8775 52.79613,-68.90343 4.07623,-19.73427 -0.64677,-45.26996 -13.55386,-73.28131 C 437.45901,313.76017 436,310.34639 436,310.04403 c 0,-0.30236 -5.03807,-9.8947 -11.19571,-21.31628 -16.65626,-30.89516 -22.13345,-36.13568 -46.13762,-44.14406 L 363.33333,239.46812 340,239.45012 c -23.44421,-0.0181 -44.04433,2.22539 -61.50359,6.69823 C 270.89548,248.09563 268,247.84868 268,245.25317 c 0,-1.40737 11.27592,-19.39716 16.66427,-26.58645 1.9237,-2.56667 5.56552,-8.19649 8.0929,-12.51072 8.07444,-13.78301 16.56843,-24.77543 19.63615,-25.41193 1.617,-0.3355 6.84001,-1.50395 11.60668,-2.59655 8.29036,-1.90029 22.56468,-3.8086 43.85649,-5.86307 l 9.8565,-0.95106 9.50014,-16.97568 c 5.22508,-9.33663 10.46526,-17.9408 11.64484,-19.12039 1.97072,-1.97072 3.21274,-1.87173 15.31003,1.22015 21.65291,5.53413 50.57608,12.68408 71.832,17.75721 11,2.62536 21.40356,5.43113 23.11903,6.23504 3.11128,1.45805 8.42454,11.74553 44.87356,86.88367 7.1147,14.66666 14.7707,31.76666 17.01333,38 2.24264,6.23333 4.88375,12.51684 5.86913,13.96334 0.98539,1.4465 1.79922,3.5465 1.80851,4.66667 0.009,1.12016 1.84256,5.63665 4.07393,10.03665 2.23138,4.4 6.78363,14.9 10.11614,23.33334 3.33249,8.43333 6.84956,17.13333 7.81569,19.33333 0.96613,2.2 3.65437,9.1 5.97387,15.33333 13.12541,35.27286 37.07304,62.60618 54.89293,62.65364 11.12344,0.0296 27.92979,-11.69502 30.31656,-21.14984 0.6716,-2.66042 1.89287,-17.73713 2.71392,-33.5038 0.82107,-15.76666 2.07329,-34.96666 2.78272,-42.66666 1.8706,-20.30299 4.17229,-121.46011 3.70125,-162.66667 l -0.4039,-35.33339 -14,-0.28508 C 647.13148,138.24319 605.69343,134.44367 574,128.71769 c -27.96779,-5.05289 -71.85403,-17.24078 -86.86817,-24.12466 -2.31083,-1.0595 -5.12542,-1.92636 -6.25464,-1.92636 -1.12923,0 -2.37012,-0.51289 -2.75755,-1.13975 -0.38741,-0.62686 -4.47283,-2.511884 -9.07868,-4.188941 C 459.44133,93.842623 440.924,84.816464 422.93052,74.861741 416.10897,71.087784 409.449,68 408.13057,68 c -1.31842,0 -4.91124,1.821207 -7.98402,4.047127 C 366.74399,96.243809 316.17857,116.73859 264,127.22897 c -39.7114,7.9839 -61.55933,10.13322 -111.2152,10.94095 -20.46836,0.33296 -37.67429,0.88911 -38.2354,1.23589 -0.56111,0.34679 -1.08317,27.02235 -1.16012,59.27902 -0.12216,51.2054 0.11293,58.6485 1.85242,58.6485 1.88444,0 23.52797,-16.74814 36.91482,-28.56534 3.38609,-2.98907 11.39844,-9.63466 17.80523,-14.76799 6.40677,-5.13333 16.14214,-13.08333 21.63414,-17.66667 C 197.08791,191.75 202.42556,188 203.45735,188 c 2.2516,0 2.4698,5.35644 0.4892,12.0088 -3.35095,11.25505 -10.62571,50.02528 -11.89174,63.376 -4.70909,49.65967 2.00328,89.01587 21.93119,128.58739 13.93552,27.67225 37.01792,50.35296 66.014,64.86516 18.50135,9.25972 34.16716,13.65124 53.38705,14.96573 16.85836,1.15299 24.63182,0.75416 36.61295,-1.87845 z m 23.33333,-243.33527 c 0,-2.08377 -16.04612,-32.40777 -17.81704,-33.67069 -3.26342,-2.32727 -42.33186,2.06421 -51.14044,5.74844 -3.15862,1.3211 -15.98269,19.50382 -14.67684,20.80968 0.42799,0.42798 14.1708,0.90778 30.53958,1.0662 28.16042,0.27253 30.29934,0.47377 39.76141,3.74105 11.4248,3.94501 13.33333,4.275 13.33333,2.30532 z"
       id="path787" />
  </g>
</svg>
