<svg viewBox="0 0 1382.616 1382.616"><path style="fill:#000;stroke-width:1.35021" d="M525.824 1178.675l-4.431-.06-4.822-2.55-4.822-2.549-1.79-2.156-1.79-2.157 3.134-3.336 3.134-3.336h3.161l2.504 2.766 2.503 2.766 3.983-.403 3.984-.403 1.48-2.363 1.479-2.363-1.481-2.363-1.482-2.362-2.9-.432-2.9-.431-.018-1.594-.019-1.594-.814-3.038-.814-3.038h5.62l1.57-2.931 1.568-2.931-2.259-1.652-2.259-1.652-2.544.665-2.544.666-.726 1.892-.727 1.892h-7.855l-1.627-1.96-1.627-1.961 2.474-3.33 2.475-3.329 4.434-2.136 4.434-2.136h6.746l4.506 1.883 4.506 1.882 2.201 3.144 2.202 3.143v6.9l-2.084 2.976-2.084 2.975 2.95 3.99 2.95 3.99-.808 4.98-.808 4.978-2.42 2.72-2.421 2.719-4.345 1.839-4.345 1.839-4.432-.06zm381.5-1.348l-6.75.866-3.378-.904-3.378-.904-3.597-2.356-3.596-2.357v-3.269l3.296-3.096 3.296-3.097 3.637 2.861 3.637 2.862h6.056l1.775-2.139 1.775-2.139-1.41-2.236-1.411-2.236-8.441-3.223-8.44-3.223-1.815-4.342-1.814-4.34.795-3.252.795-3.25 2.172-2.55 2.173-2.549 4.345-1.839 4.344-1.839h8.626l5.857 3.433 5.857 3.432v2.402l-4.123 2.937-4.123 2.936-2.397-2.169-2.396-2.169h-8.275l-.74 1.927-.739 1.926 1.772 1.47 1.771 1.47 6.703 1.991 6.704 1.99 2.406 2.66 2.407 2.659.669 5.937.669 5.938-3.983 4.457-3.983 4.458zm-333.147-.18l-14.726.55.887-10.487.886-10.487v-26.829l15.434.454 15.433.454 3.724 2.783 3.723 2.784 2.697 3.612 2.696 3.611.584 8.068.583 8.068-3.488 5.952-3.488 5.952-5.11 2.482-5.109 2.481zm5.994-10.874l6.795-.653 3.332-3.13 3.331-3.13v-11.312l-3.395-3.395-3.394-3.395-4.2-.84-4.2-.84h-5.064v27.348zm70.103 11.11h-5.337v-47.256h27.044l4.787 4.388 4.786 4.388.076 5.547.076 5.547-2.263 3.454-2.263 3.453-2.282 1.023-2.282 1.024-8.1.778-8.102.777-.402 8.44-.402 8.438h-5.337zm11.424-26.097l4.423-.488 1.56-.964 1.56-.964v-6.496l-2.767-1.481-2.767-1.481-3.525.42-3.524.421-.213 4.726-.214 4.726.522 1.034.522 1.034zm40.623 26.098h-6.076v-47.257h26.91l4.731 4.153 4.731 4.154.837 4.459.836 4.458-2.21 4.273-2.21 4.274-3.283 1.496-3.283 1.496 6.049 8.476 6.048 8.477v1.54h-12.827l-3.767-6.706-3.767-6.708-2.068-2.067-2.067-2.068h-2.508v17.553h-6.076zm11.97-27.272l5.583-.407v-8l-4.313-1.237-4.312-1.237-1.846.708-1.847.709.577 4.936.576 4.936zm40.013 27.272h-5.4v-47.257h10.801v47.257zm27.63 0h-6.026v-47.257h10.52l9.129 12.878 9.129 12.878 1.138.704 1.138.703v-27.163h10.802v47.257h-10.573l-9.228-12.902-9.228-12.902-.387 12.902-.386 12.902zm72.248 0h-5.363v-37.533l-7.426.515-7.426.516v-10.755h41.856v9.316l-7.764.405-7.763.405-.376 18.566-.376 18.565zm-520.592-15.527l-2.037 2.7.75-3.376.752-3.375 1.93-16.203 1.93-16.202 2.114-21.604 2.114-21.603.74-8.015.738-8.014 1.931-27.091 1.932-27.09.028-7.691.029-7.691 18.23-.41 18.23-.411-.003 46.964-.003 46.965-3.232 6.369-3.233 6.368-9.379 14.177-9.38 14.178-11.072 14.177-11.074 14.177-2.036 2.7zm762.06-64.46l-1.768-.324-66.043-.364-66.042-.364.887-61.421.887-61.422H854.102l.396 9.79.397 9.788 47.595-.34 47.595-.341v3.447l-5.802 10.094-5.802 10.094-1.962 3.156-1.962 3.157-9.013 4.573-9.014 4.574-.855 1.384-.855 1.384h-60.71l.392 11.139.392 11.14 42.194.356 42.194.357v39.116h-128.27V934.346h191.703l.35 61.097.352 61.097 31.865.362 31.865.361 14.12 18.542 14.12 18.541 1.015 1.688 1.014 1.688zm-640.364-1.026h-22.067l-22.411-45.026-22.411-45.026v-9.81l28.692-.364 28.692-.364.392-11.123.392-11.123-50.949-.354-50.948-.354-15.266-16.692-15.267-16.691v-5.098l229.199.026 229.198.026 9.789 8.182 9.79 8.183v34.216l-2.838 4.725-2.837 4.726-2.896 3.153-2.897 3.152 7.132 6.3 7.132 6.298-.38 34.365-.381 34.364-10.52 7.155-10.521 7.154h-129.48l-.352-61.772-.351-61.772-44.557-.128-44.557-.127-5.063.613-5.064.613v18.607h82.363v2.416l-2.788 9.256-2.789 9.256-11.05 10.41-11.052 10.411-28.072.054-28.071.054.392 11.14.392 11.139 1.688.169 1.688.168 39.156.169 39.156.169v39.156H501.15l.377-61.434.377-61.435h-14.931v41.972l-5.96 6.356-5.96 6.355-7.52 4.54-7.521 4.54-4.656 1.6-4.655 1.6 6.13 12.764 6.128 12.762 7.202 15.19 7.201 15.19h-22.076zm263.238-40.506h34.43v-21.603h-68.86v21.603zm-27.452-62.912l5.848-.127 18.903-.22 18.903-.22 6.751-8.174 6.751-8.173.45-1.269.45-1.268h-65.035v18.453l.565.563.565.562 5.849-.127zm25.797-153.826l-1.498 2.67-1.433-3.345-1.433-3.347-7.603-19.578-7.603-19.578-4.464-12.152-4.463-12.151-9.648-24.98-9.647-24.978-6.122-16.203-6.122-16.202-3.923-10.503-3.922-10.503v-4.857l13.164-6.311 13.165-6.312 2.783.003 2.784.003 2.955 2.753 2.955 2.753.16-1.065.16-1.065-.144-.964-.144-.964 2.044.784 2.043.784-1.722 2.205-1.722 2.204 2.15-1.676 2.149-1.676 1.105 1.001 1.105 1.001-1.065-1.838-1.064-1.84 1.815-1.121 1.815-1.122 1.734 1.438 1.733 1.438v-4.38h2.54l.825 1.333.824 1.334-8.846 4.051-8.846 4.052v2.228l8.882 25.568 8.881 25.568 5.47 15.162 5.469 15.163 1.26-.779 1.26-.779 1.419-3.582 1.419-3.582 12.448-36.862 12.448-36.863-4.157-2.96-4.157-2.96-1.67.383-1.671.384.811-2.114.811-2.114 1.809 1.5 1.808 1.501 1.469-.907 1.468-.908 1.705 1.415 1.706 1.415 1.909-2.649 1.91-2.649 2.74-.02 2.74-.02 12.826 5.716 12.827 5.715.85 1.21.85 1.21-1.665 6.259-1.665 6.26-6.187 16.877-6.186 16.878-9.733 26.329-9.732 26.329-4.614 12.152-4.614 12.152-4.52 12.827-4.52 12.827-4.59 11.477-4.59 11.476-1.498 2.671zM700.97 652.152h.675v-1.35h-1.35v1.35zM404.6 754.61l-3.376 2.142 5.322-6.73 5.322-6.73 4.805-5.464 4.804-5.462 8.391-10.065 8.39-10.065 17.743-21.603 17.742-21.603 7.188-8.922 7.19-8.921 1.783-1.913 1.784-1.913 6.766-8.069 6.765-8.068 5.387-6.569 5.386-6.568 5.854-7.609 5.854-7.609-.858-9.451-.859-9.452-.642-2.187-.643-2.187 4.229-.846 4.228-.845 19.528-9.485 19.528-9.486 6.34-6.385 6.338-6.385 3.811-9.78 3.811-9.782 1.429-.883 1.428-.883-.69 12.69-.69 12.689-4.926 12.68-4.926 12.678-6.775 12.019-6.775 12.018-6.217 9.733-6.216 9.733-6.026 7.956-6.026 7.957 2.498-.765 2.498-.766 22.954-10.314 22.954-10.314 25.654-11.537 25.654-11.536 5.4-2.865 5.401-2.865.332-.135.332-.136-4.96-9.667-4.96-9.667.578-.42.577-.42 13.502-5.203 13.502-5.203 8.98-3.965 8.98-3.964.633-4.942.632-4.942-.836-.902-.836-.902-19.39-8.268-19.39-8.269-8.265-4.171-8.264-4.172-9.06-5.97-9.062-5.97-4.128-4.7-4.129-4.703v-2.944l4.388.891 4.389.892 9.451 1.258 9.452 1.259 6.076.222 6.075.222 3.376-.227 3.376-.227-6.752-3.16-6.75-3.16-10.127-4.169-10.127-4.168.322-1.35.321-1.35-2.01.77-2.008.772v-3.149l-1.013.613-1.013.613-1.606-1.74-1.607-1.74.807-.807.808-.807 2.15 1.676 2.149 1.676-1.803-2.302-1.803-2.302-2.585 1.614-2.586 1.615-2.682-1.675-2.682-1.675h-4.246l.825-1.335.824-1.335-1.92.737-1.922.738-2.039-2.039-2.039-2.039-.835.836-.836.836v-3.31l-1.688.971-1.688.972 1.001-1.105 1.001-1.105-1.504-1.812-1.504-1.812h4.381v4.232l2.87-.91 2.87-.911-1.043 1.832-1.042 1.833 1.738-1.608 1.738-1.607 4.85 3.295 4.85 3.295h4.868l3.492 2.288 3.492 2.288 2.199.2 2.199.2 9.451 3.09 9.452 3.09 2.7 1.107 2.7 1.108 11.413 2.235 11.412 2.236 7.318-.607 7.318-.607 1.523-2.575 1.523-2.576.675-13.304.675-13.304-.675-1.009-.675-1.008-2.721-1.43-2.721-1.43-40.486-16.862-40.485-16.862-22.152-8.928-22.152-8.929-.497.497-.497.497 5.215 8.631 5.215 8.631 2.269 6.728 2.27 6.728.8 6.811.8 6.812-1.488 9.414-1.488 9.414-1.368 4.726-1.368 4.726-1.386 2.025-1.386 2.025-4.347-4.907-4.348-4.907-13.115-19.397-13.115-19.396-8.89-11.102-8.89-11.1-9.18-9.29-9.18-9.29-23.498-18.653-23.499-18.652-8.424-7.354-8.425-7.353.87-1.407.87-1.406-1.467.906-1.466.906-12.373-11.775-12.374-11.775-5.738-8.163-5.738-8.163-.98-1.713-.979-1.713 7.184 3.209 7.184 3.208 18.228 8.16 18.227 8.158 22.954 10.08 22.954 10.08 26.329 11.557 26.329 11.558 17.553 7.652 17.552 7.653 19.578 8.525 19.578 8.524 4.726.75 4.726.75 23.04.272 23.04.272 11.536 3.69 11.536 3.69 7.702 1.723 7.702 1.724 7.005-1.693 7.004-1.692 10.127-3.152 10.126-3.152 6.752-.764 6.75-.764 22.991-.14 22.99-.14 20.217-8.82 20.216-8.822L890 347.6l40.507-17.988 50.963-22.868 50.964-22.868-3.005 5.573-3.004 5.572-15.554 15.616-15.554 15.615-13.502 11.47-13.502 11.47-18.903 15.313-18.903 15.312-7.862 7.56-7.862 7.56-9.877 12.152-9.878 12.152-12.483 18.902-12.482 18.903-4.637 5.739-4.636 5.738h-3.653l-2.046-6.413-2.047-6.414-1.57-7.943-1.571-7.944.945-7.567.946-7.567 2.327-7.476 2.326-7.476 4.963-7.757 4.962-7.757v-2.506l-8.44 3.845-8.438 3.845-29.03 11.754-29.029 11.753-28.692 12.133-28.692 12.133v27.915l2.12 2.12 2.12 2.12 3.428.86 3.43.861 9.035-.758 9.037-.757 12.081-3.482 12.082-3.483 9.255-3.24 9.255-3.24 1.48-1.48 1.479-1.48h4.995l4.105-2.123 4.105-2.123 1.974.758 1.974.757-.825-1.335-.825-1.334h2.7l.835 1.35.834 1.35 1.608-.02 1.608-.021-1.483-.992-1.484-.992.021-2.371.021-2.37 3.103 2.032 3.103 2.033h1.36l-.652-1.7-.653-1.702 4.07-.166 4.072-.167v.966l-4.206 2.175-4.206 2.174-1.465-1.465-1.465-1.465h-2.491l1.667 2.009 1.666 2.008-23.442 11.308-23.442 11.309-6.414 2.394-6.413 2.394v1.146l12.456-.274 12.456-.274 7.46-1.784 7.459-1.785 1.688-.048 1.687-.048v3.243l-7.763 7.545-7.764 7.545-14.852 7.53-14.853 7.53-18.565 7.827-18.566 7.827v11.881l9.114 4.176 9.114 4.176 13.196 4.322 13.195 4.321.73.731.732.731-4.9 9.729-4.898 9.728.424.199.424.2 3.208 1.804 3.207 1.805 27.173 12.176 27.172 12.176 12.667 5.337 12.668 5.336 13.324 6.687 13.324 6.686v-1.367l-6.14-8.34-6.139-8.34-7.586-12.254-7.586-12.255-9.151-18.73-9.152-18.728-1.427-6.654-1.427-6.654v-17.42h2.507l2.887 7.764 2.888 7.763 3.27 5.618 3.272 5.617 8.453 5.653 8.453 5.654 12.152 5.803 12.152 5.803 7.12 2.495 7.12 2.494-.623 4.06-.624 4.06-.854 7.501-.854 7.5 7.761 10.053 7.76 10.052 32.43 39.156 32.43 39.156 20.9 24.98 20.9 24.978 2.128 2.614 2.127 2.614-5.4-3.189-5.401-3.188-3.376-2.257-3.375-2.256-33.08-18.937-33.08-18.937-45.233-23.902-45.232-23.9-56.033-27.753-56.034-27.752-12.585-5.903-12.585-5.903H712.5l-75.3 37.575-75.3 37.575-24.98 13.206-24.978 13.206-11.477 6.13-11.477 6.128-22.953 12.87-22.954 12.87-17.553 10.082-17.553 10.082zm400.337-283.386h.675v-1.351h-1.35v1.351zm6.751-2.7h.675v-1.351h-1.35v1.35zm1.35-2.701h.675v-1.35h-1.35v1.35zm2.7 0h.676v-1.35h-1.35v1.35zm-210.632-6.751h.675v-1.35h-1.35v1.35zm233.586-2.7h.676v-1.351h-1.351v1.35zM965.612 317.3h.675v-1.351h-1.35v1.351zM731.25 654.053l-.579.579-2.6-1.901-2.6-1.901.58-.58.578-.578 2.6 1.901 2.6 1.901zm-25.553-3.251h-1.8l.9-.9.9-.9.9.9.9.9zm16.877 0h-.675v-1.351h1.35v1.351zm-11.715-2.573l-2.788 1.492.913-1.478.914-1.477 2.788-1.493 2.788-1.492-.913 1.478-.914 1.478zm9.24.772l-.9.9v-3.6l.9.9.9.9zM514.36 530.093l-1.07 1.485-1.35-.444-1.35-.445-20.253-1.348-20.253-1.347-35.78-2.102-35.781-2.103-9.435-.966-9.435-.966-.371-2.026-.37-2.025 10.48-5.08 10.48-5.081 62.448.017 62.447.017v2.768l-4.669 9.08-4.669 9.08zm409.812.534l-7.684.005-.735-1.188-.734-1.189-4.746-8.787-4.746-8.787v-3.002h125.702l10.699 5.063 10.698 5.063.037 2.189.036 2.188-9.113.84-9.114.842-29.705 1.423-29.705 1.424-21.603 1.955-21.603 1.955-7.684.005zm11.735-45.901h-.676v-1.35h1.351v1.35zm-467.627-2.427l-22.057.401-.6-.602-.599-.603 13.021-5.185 13.021-5.185 10.31-1.233 10.311-1.233 5.716-.611 5.715-.612-1.22 2.231-1.22 2.232-5.17 5-5.171 5zm493.208-.31l-23.026.036-4.049-4.388-4.048-4.388-1.88-2.48-1.879-2.478 13.427.88 13.426.88 6.22 1.98 6.218 1.98 9.309 3.971 9.308 3.97-23.026.037zm-368.37-24.267h-.51l-1.853-2.363-1.853-2.363 2.363 1.853 2.363 1.853v1.02zm6.586-2.7h-.675v-1.351h1.35v1.35zm247.863-2.861l-1.074 1.736-.804-2.095-.804-2.095 1.198-.74 1.198-.741.68 1.1.679 1.098zm-.774-1.19h.675v-1.351h-1.35v1.35zM583.855 452.3l-2.348.02.272-3.277.271-3.279 1.086.671 1.086.671-.87 1.408-.87 1.408 1.86 1.179 1.86 1.178-2.347.021zm99.105-94.279l-.892.89-14.852-7.458-14.853-7.459-.262-.22-.263-.22 9.367-29.668 9.367-29.667 21.91-65.147 21.912-65.148h1.677l1.626 5.429 1.627 5.428-.954 1.66-.954 1.66 1.071-.968 1.072-.967 29.51 88.056 29.51 88.056-.002.676v.675l-14.349 7.426-14.348 7.426-.924.37-.925.371-6.405-19.948-6.405-19.95-9.46-28.354-9.46-28.354-.713-2.025-.713-2.026-1.932 7.427-1.933 7.426-4.613 13.502-4.614 13.502-8.965 28.354-8.965 28.355-.892.89zm22.061-73.126h.676v-1.351h-1.351v1.351zm13.503-22.954h.675v-1.35h-1.35v1.35zm31.054 0h.676v-1.35h-1.351v1.35zm-58.059-24.304h.675v-1.35h-1.35v1.35zm39.157-24.304h.675v-1.35H730v1.35zm-29.705-2.7h.675v-1.35h-1.35v1.35zm28.354-6.751H730v-1.35h-1.35v1.35zm-8.101-21.604h.675v-1.35h-1.35v1.35zm-9.451-10.801h.675v-1.35h-1.351v1.35zm1.35-5.401h.675v-1.35h-1.35v1.35zm102.313 160.493l-3.003 1.59-3.207-5.092-3.208-5.092-2.228-4.321-2.228-4.322v-1.168l16.54-6.417 16.54-6.418 31.58-12.68 31.58-12.682.6.6.6.6-5.574 5.574-5.573 5.573-13.105 8.47-13.104 8.47-21.603 12.863-21.604 12.863zm-198.178.005l-1.35-.143-17.553-10.611-17.553-10.611-20.018-12.455-20.018-12.456-4.062-5.128-4.061-5.128h.94l6.732 2.51 6.732 2.511 41.583 16.51 41.582 16.511-2.525 4.27-2.524 4.27-3.278 5.047-3.277 5.047z"/></svg>