<?xml version="1.0" encoding="UTF-8" standalone="no"?>
<!-- Created with Inkscape (http://www.inkscape.org/) -->

<svg
   version="1.1"
   id="svg228"
   width="800"
   height="800"
   viewBox="0 0 800 800"
   sodipodi:docname="Gryffindor.png"
   inkscape:export-filename="Gryffindor.svg"
   inkscape:export-xdpi="96"
   inkscape:export-ydpi="96"
   xmlns:inkscape="http://www.inkscape.org/namespaces/inkscape"
   xmlns:sodipodi="http://sodipodi.sourceforge.net/DTD/sodipodi-0.dtd"
   xmlns="http://www.w3.org/2000/svg"
   xmlns:svg="http://www.w3.org/2000/svg">
  <defs
     id="defs232" />
  <sodipodi:namedview
     id="namedview230"
     pagecolor="#505050"
     bordercolor="#ffffff"
     borderopacity="1"
     inkscape:showpageshadow="0"
     inkscape:pageopacity="0"
     inkscape:pagecheckerboard="1"
     inkscape:deskcolor="#505050"
     showgrid="false" />
  <g
     inkscape:groupmode="layer"
     inkscape:label="Image"
     id="g234">
    <path
       style="fill:#000000;stroke-width:1.33333"
       d="m 406.49335,775.45153 c -3.93802,-1.61545 -15.51507,-7.28858 -25.7268,-12.60696 C 343.166,743.26183 304.17009,716.86893 278.10205,693.36 234.63915,654.16388 199.25836,610.71139 173.31469,564.66667 c -3.71873,-6.6 -7.32313,-12.9 -8.00976,-14 -2.19386,-3.51464 -14.13849,-29.5866 -19.2419,-42 -2.71342,-6.6 -5.55086,-13.5 -6.30543,-15.33334 -1.89265,-4.59842 -8.06447,-23.3449 -12.94954,-39.33333 -10.07528,-32.97563 -17.22067,-72.41621 -20.80311,-114.82749 -1.57779,-18.67895 -2.0006,-47.0408 -1.98453,-133.12091 0.0112,-60.16171 0.5009,-110.141832 1.08816,-111.066931 0.58726,-0.925098 9.12807,-3.54427 18.97958,-5.820381 20.51655,-4.74018 40.00951,-9.409345 68.57851,-16.426669 11,-2.7019 27.2,-6.640831 36,-8.75318 8.8,-2.11235 32.2,-7.763163 52,-12.557363 19.8,-4.7942 48.6,-11.758043 64,-15.475205 15.4,-3.717164 35.5,-8.587687 44.66666,-10.823387 16.85762,-4.111476 21.18187,-4.284205 34,-1.358108 35.26544,8.050324 95.50335,22.181532 103.33334,24.240965 5.5,1.446602 16.6,4.105872 24.66666,5.90949 16.97127,3.794586 49.8789,11.453358 65.33334,15.205388 5.86666,1.424309 15.46666,3.62203 21.33333,4.883826 5.86667,1.261796 15.46667,3.454619 21.33333,4.87294 C 699.55296,88.606457 714.58095,92 717.42081,92 c 1.38475,0 3.49671,1.494128 4.69324,3.320283 1.98244,3.025581 2.12023,13.765317 1.55243,120.999997 -0.40259,76.03371 -1.14665,121.21865 -2.10252,127.67972 -0.81368,5.5 -2.43647,17.8 -3.6062,27.33333 -8.01647,65.33432 -30.23621,133.94568 -61.52819,189.99008 -3.89282,6.97212 -7.66296,13.57659 -8.37806,14.67659 -0.71511,1.1 -4.37231,6.8 -8.12712,12.66667 -3.7548,5.86666 -8.42386,12.82073 -10.37566,15.45348 -1.9518,2.63274 -6.84873,9.30046 -10.88206,14.81713 -13.39019,18.31469 -23.03226,29.42544 -42.61051,49.10092 -26.38956,26.52063 -38.94197,37.2366 -67.38949,57.53029 -23.30363,16.62419 -52.53135,33.9408 -76,45.02792 -17.24834,8.14851 -17.86583,8.26306 -26.17332,4.85512 z m 17.83026,-42.94782 c 25.14752,-12.6641 52.17671,-29.25131 72.34306,-44.39531 32.02446,-24.04892 66.1103,-57.88423 89.59998,-88.94141 13.35406,-17.65623 16.24128,-21.65676 18.32931,-25.39702 1.15755,-2.07348 2.69357,-4.66997 3.4134,-5.76997 13.50311,-20.63468 36.67955,-65.61489 35.45411,-68.80835 -0.36036,-0.93909 -4.63048,-2.93528 -9.48916,-4.43597 -26.90279,-8.30943 -55.3539,-7.37281 -80.87218,2.66232 -25.94106,10.20139 -55.24844,34.58943 -75.10213,62.49601 -4.4,6.18468 -14.3,17.65602 -22,25.49183 -33.06208,33.64525 -76.63857,51.44171 -126.94805,51.84507 -11.71503,0.0939 -13.02631,-0.7333 -18.3551,-11.57936 -1.71272,-3.48602 -4.15049,-7.83822 -5.41728,-9.67155 -1.26678,-1.83333 -4.41509,-7.23333 -6.99624,-12 -2.58113,-4.76667 -6.80394,-12.26667 -9.38401,-16.66667 -2.58008,-4.4 -7.83077,-13.7 -11.66824,-20.66666 C 273.39363,559.7 266.94544,548.3 262.90179,541.33333 c -4.04366,-6.96666 -8.67294,-15.06666 -10.28731,-18 -4.02197,-7.30797 -22.95833,-40.91984 -47.32419,-84 -11.19874,-19.8 -22.7936,-40.61144 -25.76633,-46.24765 l -5.40496,-10.24765 1.71136,-13.71284 c 3.15784,-25.3032 13.95317,-60.13119 25.36573,-81.83514 19.98264,-38.00217 48.80218,-70.17369 84.52542,-94.35652 11.38574,-7.70758 41.3782,-22.50069 53.3769,-26.32697 5.00414,-1.59576 9.44106,-3.79427 9.85982,-4.88556 0.50461,-1.315 -4.20528,-6.81369 -13.96547,-16.30435 C 316.77889,127.70578 295.56748,113.29768 276,105.34515 c -20.3534,-8.271938 -22.11592,-8.532963 -35.73059,-5.29164 -68.86973,16.39624 -94.30668,22.73349 -96.37249,24.00981 -1.60173,0.9896 -1.96155,14.61433 -2.31225,87.55433 -0.41706,86.7432 0.49629,117.01692 4.53698,150.38235 2.3146,19.11244 7.47112,47.08217 11.98203,64.99241 3.29612,13.08699 16.60136,54.24538 19.93739,61.67426 0.98793,2.2 4.86934,10.9 8.62536,19.33333 41.74488,93.7294 116.54028,172.29137 210.29652,220.88672 8.96294,4.64564 16.62792,8.44661 17.03328,8.44661 0.40536,0 5.05268,-2.17333 10.32738,-4.82962 z m -60.5362,-118.45899 c 21.50306,-4.52331 39.29536,-12.04185 56.13688,-23.72192 40.9542,-28.40287 68.22624,-76.14955 82.05376,-143.65613 5.6935,-27.7959 6.39398,-42.18844 5.41852,-111.33334 -0.77268,-54.771 -0.60698,-65.51245 1.14903,-74.48838 1.12856,-5.76862 2.56243,-11.16862 3.18639,-12 0.62394,-0.83139 1.90646,-4.21162 2.85002,-7.51162 2.80124,-9.797 7.74911,-17.5007 16.84378,-26.22534 4.71581,-4.52395 8.57421,-8.80251 8.57421,-9.50794 0,-0.70541 -9.38361,-10.354 -20.85247,-21.4413 -23.4989,-22.71715 -21.50001,-21.81122 -41.55736,-18.83434 -10.33648,1.53414 -37.37316,4.53444 -66.9088,7.42502 -11.35857,1.11162 -21.21644,2.58564 -21.90638,3.27558 -1.28324,1.28324 0.36184,5.48954 4.68341,11.97499 12.59632,18.90345 25.61008,51.39919 32.30507,80.66667 5.98738,26.17416 6.40716,29.06457 7.1648,49.33333 1.90106,50.85835 -10.33079,93.25219 -38.04316,131.852 -17.79146,24.78125 -49.24995,50.25832 -78.67458,63.71564 -6.34912,2.90377 -12.74386,5.84008 -14.21053,6.52512 -1.46667,0.68505 -6.86667,2.69451 -12,4.46547 -5.32619,1.83749 -9.51029,4.084 -9.74549,5.23248 -0.22668,1.1069 1.12332,4.4449 3,7.41776 1.87669,2.97286 3.41216,5.72905 3.41216,6.12486 0,0.39582 1.50605,3.10542 3.34678,6.02132 1.84075,2.91592 5.0811,8.45399 7.20079,12.30684 11.33037,20.59462 27.47317,48.82062 29.84612,52.18652 l 2.71281,3.848 12.50798,-0.87922 c 6.87938,-0.48358 16.5572,-1.731 21.50626,-2.77207 z m -78.8551,-108.72863 c 25.63353,-8.88185 54.84645,-26.25758 73.28666,-43.5906 23.76775,-22.34066 41.01292,-52.12322 48.4111,-83.60637 5.88837,-25.05813 6.70326,-31.04993 6.70326,-49.28841 0,-37.04962 -11.33285,-83.72296 -27.55853,-113.49738 -1.19889,-2.2 -4.14709,-7.7138 -6.55155,-12.25289 C 372.32245,190.0532 365.52256,180 363.61187,180 c -7.34935,0 -49.74735,17.74152 -58.67991,24.55471 -2.48435,1.8949 -4.94632,3.44529 -5.47105,3.44529 -1.44996,0 -15.3525,9.86611 -15.41032,10.93612 -0.0279,0.51487 2.57384,4.71487 5.78148,9.33333 14.35214,20.66474 23.12973,46.01822 24.41132,70.51052 1.38584,26.48462 -4.83084,47.9371 -21.60467,74.55336 C 287.80544,381.00265 278.70592,392 277.19339,392 275.02064,392 264,382.55833 264,380.69688 c 0,-0.90671 3.01557,-5.68269 6.70128,-10.61331 8.42883,-11.27581 16.49957,-26.66749 20.31897,-38.75024 2.43452,-7.70166 2.95238,-12.4801 2.96219,-27.33333 0.0107,-16.04416 -0.38817,-19.23335 -3.66995,-29.35071 -5.52396,-17.02985 -17.32612,-39.17616 -21.79064,-40.88936 -1.23356,-0.47336 -3.8875,0.99127 -6.75952,3.73036 -9.19828,8.77255 -32.429,38.04568 -32.429,40.86392 0,0.5581 -2.05314,4.06346 -4.56253,7.7897 -2.5094,3.72624 -6.17204,10.61822 -8.13921,15.31553 -1.96716,4.69731 -4.06296,9.14056 -4.65734,9.87389 -4.71334,5.81539 -17.30758,54.6105 -17.30758,67.0565 0,1.33018 5.17072,11.38665 11.49048,22.34768 6.31976,10.96104 15.10966,26.52916 19.53313,34.59582 4.42347,8.06667 9.49929,17.06667 11.27961,20 1.78032,2.93334 8.63267,14.93334 15.22743,26.66667 15.32133,27.25956 15.37127,27.33333 18.50259,27.33333 1.45113,0 7.85572,-1.80776 14.2324,-4.01724 z M 517.75976,493.5106 c 34.91372,-23.94625 82.16737,-30.66409 123.35903,-17.5374 4.64868,1.4814 9.02929,2.69347 9.7347,2.69347 2.10651,0 6.67863,-12.5233 14.60359,-40 2.68791,-9.3193 8.19447,-33.40074 10.36609,-45.33334 8.07107,-44.34869 8.41696,-50.57781 9.12356,-164.30329 l 0.64392,-103.63663 -3.12865,-1.24129 c -3.72687,-1.47862 -47.44201,-12.04919 -69.18979,-16.73049 -8.46694,-1.82254 -18.96694,-4.25222 -23.33333,-5.39927 -4.36639,-1.14706 -17.23888,-4.199472 -28.60555,-6.783144 -11.36666,-2.583672 -26.66666,-6.148317 -34,-7.921435 -17.91146,-4.330789 -70.32228,-16.655672 -94,-22.10496 -6.23333,-1.434565 -13.50294,-3.194317 -16.15469,-3.910561 -7.85513,-2.121692 -11.25661,-1.6417 -41.90615,5.913481 -25.01378,6.16596 -47.35716,11.57145 -77.18144,18.672359 -3.61658,0.86108 -6.78026,2.179548 -7.0304,2.929931 -0.25012,0.750382 2.68774,2.8233 6.52859,4.606484 20.63524,9.580295 47.97777,32.144695 71.57436,59.066645 4.23631,4.83332 4.81587,5.07812 10,4.22388 3.02668,-0.49873 13.30307,-1.72456 22.8364,-2.72405 9.53333,-0.99951 24.53333,-2.72026 33.33333,-3.8239 20.81774,-2.61084 49.64144,-5.92248 60.9867,-7.00693 l 8.98669,-0.85901 22.17001,21.84942 c 12.19351,12.01719 25.2852,24.84943 29.09266,28.5161 25.47414,24.5322 85.62788,83.14885 94.41249,92 9.41324,9.48454 10.5148,11.10996 9.93972,14.66666 -0.5344,3.3052 -9.99195,27.13458 -26.45903,66.66667 -1.52734,3.66667 -6.62898,16.54453 -11.33696,28.61749 -8.07186,20.69916 -11.2446,26.71584 -14.08789,26.71584 -0.6686,0 -3.12561,-1.4033 -5.46001,-3.11846 -6.27518,-4.61055 -25.98742,-13.78715 -33.16814,-15.44068 -3.4414,-0.79247 -10.37393,-1.44086 -15.40562,-1.44086 -7.80066,0 -10.04523,0.56867 -15.23476,3.85978 -10.31535,6.5418 -12.36142,10.55028 -15.04434,29.47356 -2.35185,16.58821 -9.89034,48.49285 -13.49832,57.12793 -1.04125,2.49208 -1.8932,4.75779 -1.8932,5.03489 0,1.44875 3.46503,0.084 8.42643,-3.31889 z m 86.68247,-107.17727 c 1.11442,-3.11666 4.23569,-11.06666 6.93614,-17.66666 2.70046,-6.6 8.1015,-19.8 12.00232,-29.33334 3.90084,-9.53333 7.82135,-19.73333 8.71226,-22.66666 0.8909,-2.93334 2.43445,-6.51684 3.4301,-7.96335 3.86471,-5.61471 2.33199,-8.50307 -12.13188,-22.86216 C 615.723,278.22852 608.823,272 608.05784,272 c -0.76515,0 -1.39117,1.10997 -1.39117,2.46661 0,4.12359 -7.51224,13.13514 -14.23319,17.07387 -5.36188,3.14228 -7.84137,3.71877 -15.99405,3.71877 -8.56947,0 -10.2891,-0.44874 -15.37727,-4.01282 -7.15661,-5.01296 -13.19996,-15.41443 -12.73173,-21.9131 l 0.33624,-4.66666 h 25.66765 c 14.11721,0 25.66721,-0.37075 25.66667,-0.82387 -5.5e-4,-0.45313 -5.80487,-6.45313 -12.8985,-13.33333 -7.09362,-6.88022 -16.65401,-16.25947 -21.24529,-20.8428 -4.59129,-4.58334 -9.21861,-8.33334 -10.28296,-8.33334 -2.31379,0 -17.4274,15.85806 -20.04012,21.02724 -8.01712,15.86163 -9.13076,28.32942 -8.0472,90.09336 l 0.93192,53.12059 3.45724,-0.6662 c 1.90149,-0.36641 6.87463,-1.53432 11.0514,-2.59536 10.47015,-2.65976 29.07328,-1.02152 42.40585,3.73436 5.5,1.96191 10.57,4.10385 11.26667,4.75989 2.9264,2.75572 5.85443,1.08532 7.84223,-4.47388 z"
       id="path346" />
  </g>
</svg>
