<svg viewBox="0 0 800 800"><path style="fill:#000;stroke-width:1.33333" d="M406.493 775.452c-3.938-1.616-15.515-7.289-25.726-12.607-37.601-19.583-76.597-45.976-102.665-69.485-43.463-39.196-78.844-82.649-104.787-128.693-3.719-6.6-7.323-12.9-8.01-14-2.194-3.515-14.139-29.587-19.242-42l-6.305-15.334c-1.893-4.598-8.065-23.345-12.95-39.333-10.075-32.976-17.22-72.416-20.803-114.827-1.578-18.68-2-47.041-1.985-133.121.012-60.162.501-110.142 1.089-111.067.587-.925 9.128-3.545 18.98-5.82 20.516-4.74 40.009-9.41 68.578-16.427 11-2.702 27.2-6.641 36-8.754 8.8-2.112 32.2-7.763 52-12.557 19.8-4.794 48.6-11.758 64-15.475 15.4-3.717 35.5-8.588 44.666-10.824 16.858-4.111 21.182-4.284 34-1.358 35.266 8.05 95.504 22.182 103.334 24.241 5.5 1.447 16.6 4.106 24.666 5.91 16.972 3.794 49.88 11.453 65.334 15.205A1007.838 1007.838 0 00638 74.01a1046.043 1046.043 0 0121.333 4.873C699.553 88.606 714.581 92 717.421 92c1.385 0 3.497 1.494 4.693 3.32 1.982 3.026 2.12 13.766 1.552 121-.402 76.034-1.146 121.219-2.102 127.68-.814 5.5-2.437 17.8-3.606 27.333-8.017 65.335-30.236 133.946-61.528 189.99-3.893 6.973-7.663 13.577-8.378 14.677-.716 1.1-4.373 6.8-8.128 12.667-3.754 5.866-8.423 12.82-10.375 15.453-1.952 2.633-6.849 9.3-10.882 14.817-13.39 18.315-23.033 29.426-42.61 49.101-26.39 26.52-38.943 37.237-67.39 57.53-23.304 16.625-52.532 33.941-76 45.028-17.249 8.149-17.866 8.263-26.174 4.856zm17.83-42.948c25.148-12.664 52.177-29.252 72.344-44.396 32.024-24.049 66.11-57.884 89.6-88.941 13.354-17.656 16.24-21.657 18.329-25.397 1.158-2.074 2.694-4.67 3.413-5.77 13.503-20.635 36.68-65.615 35.454-68.808-.36-.94-4.63-2.936-9.489-4.436-26.902-8.31-55.354-7.373-80.872 2.662-25.94 10.201-55.248 34.59-75.102 62.496-4.4 6.185-14.3 17.656-22 25.492-33.062 33.645-76.639 51.442-126.948 51.845-11.715.094-13.026-.733-18.355-11.58-1.713-3.485-4.15-7.838-5.417-9.671-1.267-1.833-4.416-7.233-6.997-12-2.58-4.767-6.804-12.267-9.384-16.667-2.58-4.4-7.83-13.7-11.668-20.666a1573.298 1573.298 0 00-14.33-25.334c-4.043-6.966-8.672-15.066-10.287-18-4.021-7.308-22.958-40.92-47.324-84-11.198-19.8-22.793-40.611-25.766-46.247l-5.405-10.248 1.711-13.713c3.158-25.303 13.954-60.131 25.366-81.835 19.983-38.002 48.802-70.174 84.526-94.356 11.385-7.708 41.378-22.501 53.376-26.327 5.005-1.596 9.441-3.795 9.86-4.886.505-1.315-4.205-6.814-13.965-16.304-18.214-17.711-39.426-32.12-58.993-40.072-20.353-8.272-22.116-8.533-35.73-5.291-68.87 16.396-94.307 22.733-96.373 24.01-1.602.989-1.962 14.614-2.312 87.554-.417 86.743.496 117.017 4.537 150.382 2.314 19.112 7.47 47.082 11.982 64.992 3.296 13.087 16.601 54.246 19.937 61.675.988 2.2 4.87 10.9 8.625 19.333 41.745 93.73 116.54 172.291 210.297 220.887 8.963 4.645 16.628 8.446 17.033 8.446.406 0 5.053-2.173 10.328-4.83zm-60.536-118.46c21.503-4.523 39.296-12.041 56.137-23.721 40.954-28.403 68.227-76.15 82.054-143.656 5.694-27.796 6.394-42.189 5.419-111.334-.773-54.77-.607-65.512 1.149-74.488 1.128-5.769 2.562-11.169 3.186-12 .624-.831 1.906-4.212 2.85-7.512 2.801-9.797 7.75-17.5 16.844-26.225 4.716-4.524 8.574-8.803 8.574-9.508 0-.705-9.384-10.354-20.852-21.441-23.5-22.717-21.5-21.811-41.558-18.835-10.336 1.535-37.373 4.535-66.909 7.425-11.358 1.112-21.216 2.586-21.906 3.276-1.283 1.283.362 5.49 4.683 11.975 12.597 18.903 25.61 51.4 32.305 80.667 5.988 26.174 6.408 29.064 7.165 49.333 1.901 50.858-10.33 93.252-38.043 131.852-17.791 24.781-49.25 50.258-78.674 63.716-6.35 2.903-12.744 5.84-14.211 6.525-1.467.685-6.867 2.694-12 4.465-5.326 1.838-9.51 4.084-9.745 5.233-.227 1.107 1.123 4.445 3 7.417 1.876 2.973 3.412 5.73 3.412 6.125 0 .396 1.506 3.106 3.346 6.022 1.841 2.916 5.082 8.454 7.201 12.306 11.33 20.595 27.473 48.821 29.846 52.187l2.713 3.848 12.508-.88c6.88-.483 16.557-1.73 21.506-2.771zm-78.855-108.728c25.634-8.882 54.847-26.257 73.287-43.59 23.768-22.341 41.013-52.124 48.411-83.607 5.888-25.058 6.703-31.05 6.703-49.288 0-37.05-11.333-83.723-27.558-113.498-1.2-2.2-4.147-7.713-6.552-12.253-6.9-13.027-13.7-23.08-15.611-23.08-7.35 0-49.747 17.742-58.68 24.555-2.484 1.895-4.946 3.445-5.471 3.445-1.45 0-15.353 9.866-15.41 10.936-.028.515 2.573 4.715 5.781 9.333 14.352 20.665 23.13 46.019 24.411 70.511 1.386 26.485-4.83 47.937-21.604 74.553-4.834 7.67-13.933 18.667-15.446 18.667-2.172 0-13.193-9.442-13.193-11.303 0-.907 3.016-5.683 6.701-10.613 8.43-11.276 16.5-26.668 20.32-38.75 2.434-7.702 2.952-12.48 2.961-27.334.011-16.044-.388-19.233-3.67-29.35-5.523-17.03-17.326-39.177-21.79-40.89-1.234-.473-3.888.991-6.76 3.73-9.198 8.773-32.429 38.046-32.429 40.864 0 .558-2.053 4.064-4.562 7.79-2.51 3.726-6.172 10.618-8.14 15.315-1.967 4.698-4.062 9.141-4.657 9.874-4.713 5.816-17.307 54.61-17.307 67.057 0 1.33 5.17 11.386 11.49 22.348 6.32 10.96 15.11 26.529 19.533 34.595 4.424 8.067 9.5 17.067 11.28 20 1.78 2.934 8.633 14.934 15.227 26.667 15.322 27.26 15.372 27.333 18.503 27.333 1.451 0 7.856-1.807 14.232-4.017zm232.828-11.805c34.913-23.947 82.167-30.664 123.359-17.538 4.648 1.482 9.03 2.694 9.734 2.694 2.107 0 6.68-12.524 14.604-40 2.688-9.32 8.195-33.401 10.366-45.334 8.071-44.348 8.417-50.577 9.124-164.303l.644-103.637-3.129-1.24c-3.727-1.48-47.442-12.05-69.19-16.731-8.467-1.823-18.967-4.253-23.333-5.4-4.367-1.147-17.239-4.2-28.606-6.783-11.366-2.583-26.666-6.148-34-7.921-17.911-4.331-70.322-16.656-94-22.105-6.233-1.435-13.503-3.194-16.154-3.91-7.855-2.122-11.257-1.642-41.907 5.913-25.013 6.166-47.357 11.571-77.181 18.672-3.617.861-6.78 2.18-7.03 2.93s2.687 2.823 6.528 4.607c20.635 9.58 47.978 32.144 71.575 59.066 4.236 4.833 4.815 5.078 10 4.224 3.026-.499 13.303-1.725 22.836-2.724 9.533-1 24.533-2.72 33.333-3.824 20.818-2.61 49.642-5.922 60.987-7.007l8.987-.859 22.17 21.85c12.193 12.017 25.285 24.849 29.092 28.516 25.475 24.532 85.628 83.149 94.413 92 9.413 9.484 10.515 11.11 9.94 14.666-.535 3.306-9.992 27.135-26.46 66.667-1.527 3.667-6.628 16.545-11.336 28.617-8.072 20.7-11.245 26.716-14.088 26.716-.669 0-3.126-1.403-5.46-3.118-6.275-4.61-25.988-13.787-33.168-15.44-3.442-.793-10.374-1.442-15.406-1.442-7.8 0-10.045.569-15.235 3.86-10.315 6.542-12.361 10.55-15.044 29.474-2.352 16.588-9.89 48.493-13.498 57.128-1.042 2.492-1.894 4.757-1.894 5.034 0 1.45 3.465.084 8.427-3.318zm86.682-107.178c1.115-3.116 4.236-11.066 6.936-17.666l12.003-29.334c3.9-9.533 7.821-19.733 8.712-22.666.89-2.934 2.434-6.517 3.43-7.964 3.865-5.614 2.332-8.503-12.132-22.862C615.723 278.23 608.823 272 608.058 272c-.765 0-1.391 1.11-1.391 2.467 0 4.123-7.513 13.135-14.234 17.073-5.361 3.143-7.84 3.72-15.994 3.72-8.569 0-10.289-.45-15.377-4.014-7.156-5.013-13.2-15.414-12.732-21.913l.337-4.666h25.667c14.118 0 25.668-.371 25.667-.824 0-.453-5.805-6.453-12.899-13.334-7.093-6.88-16.654-16.259-21.245-20.842-4.591-4.584-9.218-8.334-10.283-8.334-2.314 0-17.427 15.858-20.04 21.028-8.017 15.861-9.13 28.329-8.047 90.093l.932 53.12 3.457-.666c1.902-.366 6.875-1.534 11.051-2.595 10.47-2.66 29.074-1.022 42.406 3.734 5.5 1.962 10.57 4.104 11.267 4.76 2.926 2.756 5.854 1.086 7.842-4.474z"/></svg>