<svg viewBox="0 0 800 800"><path d="M393.186 777.612c-4.847-4.187-13.547-11.507-19.333-16.268-5.786-4.76-12.92-10.844-15.853-13.519-2.933-2.675-7.433-6.566-10-8.647-8.978-7.279-56.816-52.44-73.514-69.4-52.772-53.6-95.888-110.569-120.615-159.366-11.302-22.303-21.912-55.779-24.431-77.079-1.321-11.174-2.912-44.087-5.476-113.333-.72-19.433-2.186-54.833-3.258-78.667-5.17-114.953-5.12-113.227-3.378-115.326 1.356-1.635 5.656-2.009 23.169-2.015 83.45-.032 180.1-31.138 236.206-76.021 6.573-5.258 12.854-10.084 13.957-10.724 1.104-.64 4.707-4.447 8.007-8.46 3.3-4.011 7.01-7.33 8.245-7.374 1.235-.044 7.235 4.008 13.333 9.003 19.848 16.258 48.952 34.823 75.398 48.095 13.712 6.881 50.173 20.69 69.024 26.14a3018 3018 0 0116 4.664c7.396 2.208 37.187 8.136 54.666 10.877 9.84 1.544 27.422 3.025 40.667 3.426 14.186.43 24.063 1.293 25.194 2.202 1.98 1.592 1.766 14.137-1.133 66.18-3.28 58.883-8.136 149.973-9.383 176-3.31 69.066-5.24 82.04-16.81 112.93-4.626 12.35-20.563 44.68-25.702 52.14-1.364 1.978-5.646 8.697-9.517 14.93-11.284 18.172-29.146 42.112-48.248 64.667C554.48 655.079 490.109 717.26 442 756.016c-5.867 4.726-12.467 10.253-14.667 12.282-2.2 2.03-4.407 3.692-4.904 3.696-.498.004-1.704.756-2.681 1.673-8.256 7.747-13.45 11.658-15.419 11.612-1.28-.03-6.295-3.48-11.143-7.667zm22.19-43.929c49.768-40.98 104.761-94.06 141.978-137.033 19.94-23.022 39.866-49.069 53.542-69.983 11.326-17.32 17.259-28.085 23.608-42.833l4.377-10.166-3.36-6.631c-9.91-19.555-28.585-32.823-51.273-36.425-20.29-3.222-42.55 4.948-67.581 24.803-2.934 2.327-15.834 11.29-28.667 19.916-12.833 8.627-25.433 17.315-28 19.308-2.567 1.993-11.567 8.356-20 14.14a5702.528 5702.528 0 00-25.333 17.475c-35.049 24.39-54.612 32.814-76 32.726-17.647-.072-31.471-6.613-46.21-21.865-11.962-12.38-15.445-19.253-12.993-25.641.692-1.803 7.491-7.312 17.454-14.14 4.735-3.246 34.355-25.754 35.082-26.659.367-.456 10.567-8.17 22.667-17.143 12.1-8.973 25.714-19.138 30.255-22.59 4.54-3.451 13.84-10.3 20.666-15.217a9800.78 9800.78 0 0023.97-17.334c6.356-4.615 12.656-9.156 14-10.09 1.343-.936 8.17-5.736 15.17-10.667 7.002-4.932 13.678-9.567 14.836-10.3 1.159-.734 6.531-4.637 11.938-8.674 5.407-4.037 12.42-9.096 15.585-11.242 19.726-13.376 32.271-39.329 32.227-66.67-.024-14.755-2.611-26.287-8.767-39.087-8.349-17.357-13.027-22.909-33.88-40.205-5.5-4.562-11.5-9.687-13.334-11.389-3.956-3.673-38.86-29.883-49.333-37.045-4.033-2.759-8.665-5.017-10.293-5.019-1.628 0-14.228 5.758-28 12.8-13.772 7.042-41.604 21.126-61.848 31.299-20.245 10.173-37.421 19.261-38.17 20.197-.75.935-1.787 11.704-2.306 23.929l-.944 22.228 3.114 1.977c1.712 1.088 6.414 3.28 10.447 4.873 4.033 1.593 9.133 3.695 11.333 4.671 3.628 1.61 37.362 14.938 46.39 18.329 3.258 1.223 4.508.844 10-3.033 3.453-2.437 9.577-7.19 13.61-10.56 4.034-3.372 10.634-8.627 14.667-11.678 4.033-3.05 11.833-9.22 17.333-13.71 14.85-12.124 13.909-11.925 20.927-4.433 8.749 9.34 14.017 21.187 14.792 33.264.565 8.793.244 10.546-3.158 17.27-4.37 8.638-12.402 16.347-29.774 28.574-6.772 4.767-15.719 11.224-19.883 14.349-7.506 5.633-53.065 38.937-74.307 54.318-27.776 20.112-47.94 34.813-63.93 46.607-9.533 7.033-21.71 15.809-27.059 19.503C212.318 471.64 192 495.791 192 505.066c0 4.764 10.158 22.089 24.002 40.934 4.848 6.6 11.168 15.3 14.045 19.333 7.134 10.004 27.434 34.912 36.403 44.667 24.118 26.233 27.235 29 38.778 34.411 10.313 4.835 12.387 5.32 25.433 5.938 34.122 1.617 56.639-7.943 115.339-48.97 16.986-11.872 30.882-21.937 59.567-43.146 5.629-4.161 11.127-7.566 12.218-7.566 1.877 0 10.215 9.995 10.215 12.245 0 .9-11.933 10.037-43.333 33.18-9.562 7.048-41.311 29.085-50.334 34.936-4.216 2.735-10.816 7.024-14.666 9.53-20.896 13.61-45.35 24.029-64.245 27.375-4.352.77-12.902 1.4-19 1.4-6.099 0-11.089.499-11.089 1.108 0 1.969 39.564 38.758 59.525 55.352 6.495 5.398 12.952 11.104 14.349 12.678 1.397 1.574 3.516 2.862 4.71 2.862 1.193 0 6.35-3.442 11.46-7.65zM366 257.402c-1.467-.597-11.067-3.36-21.333-6.139-10.267-2.78-19.436-5.74-20.375-6.58-2.643-2.364.285-4.276 29.708-19.391 14.667-7.535 27.85-14.508 29.297-15.496 3.581-2.446 7.37-2.262 7.37.357 0 2.678-5.814 24.382-10.228 38.18-3.221 10.07-3.414 10.331-7.539 10.243-2.328-.05-5.433-.578-6.9-1.174zm-13.648 281.84c11.526-2.987 26.313-10.794 46.636-24.623 29.883-20.335 38.958-26.556 40.345-27.658 1.524-1.21 23.682-16.82 32.667-23.01 3.3-2.275 15.3-10.664 26.667-18.642 41.28-28.975 51.547-33.501 76.666-33.8 16.049-.192 27.794 2.584 40.402 9.55 8.817 4.87 22.975 16.332 27.495 22.258 2.786 3.652 4.072 4.51 4.76 3.177 1.861-3.614 4.07-24.995 5.353-51.827.718-15.034 1.626-31.234 2.017-36 .39-4.767 1.281-20.667 1.98-35.334.697-14.666 2.459-49.166 3.914-76.666 1.456-27.5 2.82-58.378 3.03-68.618l.383-18.618-15.334-1.586c-32.046-3.315-54.053-7.782-93.935-19.067-12.884-3.646-35.14-11.311-42.731-14.717-1.467-.658-10.847-4.847-20.845-9.31-18.108-8.081-46.39-23.457-59.975-32.606-3.93-2.647-7.54-4.812-8.022-4.812-.482 0-2.835-1.83-5.23-4.067-7.695-7.188-8.156-7.194-17.085-.24-32.597 25.39-75.204 47.758-116.177 60.992-30.145 9.737-34.589 10.943-56 15.197-25.636 5.094-43.4 7.694-60.666 8.88-7.334.504-14.04 1.476-14.903 2.16-.863.684-1.321 3.156-1.017 5.494.304 2.338 1.175 22.251 1.936 44.251 2.114 61.105 5.205 138.474 6.66 166.667.718 13.933 1.31 30.804 1.315 37.492.013 18.46 5.08 42.429 12.65 59.841.957 2.2 2.085 5.05 2.507 6.333 1.214 3.69 3.049 2.794 8.18-4 8.88-11.757 22.598-24.582 36.525-34.15 17.06-11.719 16.336-11.198 43.713-31.418A6695.637 6695.637 0 01312 377.33c12.833-9.277 29.633-21.6 37.333-27.388 7.7-5.786 18.277-13.541 23.503-17.232 19.607-13.846 47.807-34.496 49.782-36.454 8.185-8.109 10.163-16.616 6.117-26.3-3.248-7.774-.89-9.186-48.475 29.043-8.75 7.03-13.986 10.333-16.38 10.333-1.937 0-12.451-3.594-23.367-7.987-10.915-4.393-21.224-7.993-22.907-8-1.684-.007-8.705 2.733-15.603 6.089-20.256 9.853-24.985 17.2-25.041 38.901-.019 7.232-.608 11.484-1.72 12.407-.93.772-4.89 1.22-8.8.997l-7.109-.407-.21-14.928c-.116-8.21-.6-15.559-1.076-16.33-.545-.881-5.014-1.17-12.068-.778-13.276.738-15.323-.475-15.292-9.059.033-9.108.241-9.205 19.478-9.028l17.168.158 8.704-7.017c4.788-3.86 10.188-8.01 12-9.224 4.203-2.813 3.166-3.785-9.067-8.5-7.775-2.998-9.865-4.407-10.543-7.108-1.257-5.007 1.592-64.484 3.235-67.548 1.475-2.75 9.1-6.794 90.338-47.911 27.133-13.733 49.903-25.514 50.6-26.181 2.91-2.786 9.366-1.036 18.58 5.034 9.37 6.172 21.834 14.99 29.366 20.775a569.942 569.942 0 007.499 5.645c23.472 17.292 51.577 41.164 57.857 49.144 2.968 3.77 6.184 7.68 7.147 8.685 2.628 2.744 11.556 21.333 13.53 28.171.953 3.3 2.324 7.8 3.047 10 .723 2.2 1.636 11.402 2.029 20.448 1.683 38.765-12.23 67.84-42.512 88.84a1173.562 1173.562 0 00-14.476 10.24 625.43 625.43 0 01-14.852 10.317c-4.136 2.767-9.836 6.838-12.667 9.048-2.831 2.21-10.548 7.706-17.148 12.214s-17.7 12.412-24.667 17.563a3887.65 3887.65 0 01-22.666 16.623c-16.762 12.165-33.071 24.367-63.32 47.374-15.91 12.1-30.97 23.359-33.47 25.02-2.499 1.66-4.544 4.083-4.544 5.383 0 3.202 11.302 14.008 18.544 17.73 10.408 5.351 20.203 6.289 32.475 3.11zM636.667 22.667c-.454-.734.146-1.334 1.333-1.334s1.787.6 1.333 1.334C638.88 23.4 638.28 24 638 24s-.88-.6-1.333-1.333z" style="fill:#000;stroke-width:1.33333"/></svg>