<?xml version="1.0" encoding="UTF-8" standalone="no"?>
<!-- Created with Inkscape (http://www.inkscape.org/) -->

<svg
   version="1.1"
   id="svg870"
   width="800"
   height="800"
   viewBox="0 0 800 800"
   sodipodi:docname="Slytherins.png"
   xmlns:inkscape="http://www.inkscape.org/namespaces/inkscape"
   xmlns:sodipodi="http://sodipodi.sourceforge.net/DTD/sodipodi-0.dtd"
   xmlns="http://www.w3.org/2000/svg"
   xmlns:svg="http://www.w3.org/2000/svg">
  <defs
     id="defs874" />
  <sodipodi:namedview
     id="namedview872"
     pagecolor="#505050"
     bordercolor="#ffffff"
     borderopacity="1"
     inkscape:showpageshadow="0"
     inkscape:pageopacity="0"
     inkscape:pagecheckerboard="1"
     inkscape:deskcolor="#505050"
     showgrid="false" />
  <g
     inkscape:groupmode="layer"
     inkscape:label="Image"
     id="g876">
    <path
       style="fill:#000000;stroke-width:1.33333"
       d="m 393.18629,777.61192 c -4.84753,-4.18656 -13.54753,-11.50691 -19.33333,-16.26744 -5.78579,-4.76055 -12.91963,-10.84425 -15.85296,-13.51936 -2.93333,-2.67511 -7.43333,-6.56641 -10,-8.64733 -8.97761,-7.27859 -56.81585,-52.43976 -73.51355,-69.39968 -52.77221,-53.60095 -95.88797,-110.56868 -120.61549,-159.36608 -11.30156,-22.30258 -21.91219,-55.7786 -24.431,-77.0787 -1.32137,-11.17401 -2.91176,-44.087 -5.47637,-113.33333 -0.71974,-19.43333 -2.1857,-54.83333 -3.25771,-78.66667 -5.17051,-114.95362 -5.11996,-113.22783 -3.37812,-115.32661 1.35632,-1.63427 5.65648,-2.00824 23.16883,-2.01492 83.44954,-0.0318 180.10108,-31.138227 236.20629,-76.020771 6.57312,-5.258304 12.85397,-10.084273 13.95745,-10.724374 1.10348,-0.6401 4.70634,-4.446587 8.00634,-8.458856 3.3,-4.012271 7.01041,-7.330908 8.24536,-7.374752 1.23493,-0.04384 7.23493,4.007498 13.33333,9.002981 19.84801,16.258457 48.95135,34.822993 75.39808,48.095183 13.71107,6.880842 50.17225,20.689166 69.02323,26.139989 6.6,1.90841 13.8,4.00721 16,4.66398 7.39585,2.20792 37.18686,8.13553 54.66666,10.87719 9.83926,1.54326 27.42151,3.02423 40.66667,3.42538 14.18599,0.42964 24.06265,1.29282 25.19369,2.20181 1.98118,1.59222 1.76652,14.13792 -1.13232,66.18044 -3.27989,58.88348 -8.13633,149.97337 -9.38342,176 -3.30932,69.06563 -5.24055,82.03919 -16.81079,112.93072 -4.62559,12.34995 -20.562,44.67877 -25.70147,52.13839 -1.36324,1.97865 -5.64564,8.69756 -9.51645,14.93089 -11.28445,18.17185 -29.14653,42.11217 -48.24837,64.66667 C 554.48144,655.07855 490.10891,717.25971 442,756.01565 c -5.86667,4.72612 -12.46667,10.25324 -14.66667,12.28248 -2.2,2.02924 -4.40714,3.69231 -4.90476,3.6957 -0.49762,0.004 -1.70404,0.75617 -2.68093,1.67284 -8.25585,7.74684 -13.44928,11.65818 -15.41815,11.61192 -1.28122,-0.0301 -6.29565,-3.48011 -11.1432,-7.66667 z m 22.19048,-43.92848 c 49.76687,-40.98123 104.76066,-94.05981 141.9777,-137.03321 19.93873,-23.02267 39.86592,-49.0691 53.5419,-69.98356 11.32548,-17.31988 17.25842,-28.08426 23.60792,-42.83286 l 4.3767,-10.16618 -3.36,-6.63064 c -9.90943,-19.55532 -28.58488,-32.82259 -51.27302,-36.42498 -20.2905,-3.22169 -42.54992,4.94786 -67.5813,24.80339 -2.93334,2.3268 -15.83334,11.28873 -28.66667,19.91543 -12.83333,8.62669 -25.43333,17.31549 -28,19.30845 -2.56667,1.99296 -11.56667,8.35591 -20,14.13989 -8.43333,5.78399 -19.83333,13.6478 -25.33333,17.47512 -35.04842,24.38943 -54.61147,32.81338 -76,32.72603 -17.64618,-0.072 -31.47102,-6.61375 -46.20879,-21.86521 -11.96252,-12.3795 -15.44551,-19.25267 -12.99387,-25.64154 0.69178,-1.80273 7.49103,-7.31117 17.45376,-14.14022 4.73518,-3.24576 34.35564,-25.75378 35.08223,-26.65828 0.36667,-0.45646 10.56667,-8.17091 22.66667,-17.14324 12.1,-8.97234 25.71481,-19.13748 30.25514,-22.58924 4.54034,-3.45176 13.84034,-10.2999 20.66667,-15.21808 6.82633,-4.91819 17.61229,-12.71819 23.9688,-17.33334 6.35649,-4.61514 12.65649,-9.15608 14,-10.09096 1.34349,-0.93489 8.17068,-5.73489 15.17153,-10.66666 7.00086,-4.93179 13.67684,-9.56688 14.83554,-10.30022 1.15869,-0.73333 6.53073,-4.63637 11.93785,-8.67341 5.40712,-4.03704 12.42033,-9.09581 15.58492,-11.24171 19.72592,-13.3761 32.27111,-39.32924 32.22651,-66.66933 -0.0241,-14.75581 -2.61067,-26.28817 -8.76703,-39.08775 -8.34853,-17.35732 -13.02671,-22.9089 -33.87993,-40.2053 -5.5,-4.5619 -11.5,-9.6868 -13.33334,-11.38868 -3.95658,-3.67288 -38.86126,-29.88358 -49.33333,-37.04548 -4.03333,-2.75843 -8.66527,-5.01675 -10.29317,-5.0185 -1.62792,-0.001 -14.22792,5.75822 -28,12.79991 -13.7721,7.04169 -41.60379,21.12615 -61.84824,31.29879 -20.24444,10.17264 -37.42098,19.26126 -38.17007,20.19692 -0.74911,0.93566 -1.78676,11.70377 -2.30592,23.92912 l -0.94391,22.2279 3.11399,1.97728 c 1.71269,1.0875 6.41399,3.28043 10.44732,4.87319 4.03333,1.59275 9.13333,3.69463 11.33333,4.67084 3.62755,1.60967 37.36191,14.93789 46.3901,18.32843 3.25793,1.22352 4.50806,0.84442 10,-3.03243 3.4521,-2.43691 9.57657,-7.1892 13.6099,-10.56065 4.03334,-3.37144 10.63334,-8.62619 14.66667,-11.6772 4.03333,-3.05103 11.83333,-9.22106 17.33333,-13.71118 14.84976,-12.12313 13.90852,-11.92381 20.92664,-4.43164 8.74898,9.33991 14.01726,21.18672 14.7923,33.26352 0.56429,8.79287 0.24358,10.54648 -3.15842,17.27043 -4.3704,8.63795 -12.40226,16.34612 -29.77354,28.5736 -6.77188,4.76667 -15.71926,11.22353 -19.88307,14.34859 -7.50615,5.63356 -53.06568,38.93736 -74.30705,54.31808 -27.77616,20.11252 -47.94063,34.81322 -63.93019,46.6077 -9.53333,7.03214 -21.7098,15.80832 -27.05881,19.50264 C 212.31757,471.63951 192,495.79057 192,505.06557 c 0,4.7644 10.15808,22.08895 24.00152,40.93443 4.8482,6.6 11.16847,15.3 14.04504,19.33333 7.13428,10.00318 27.43475,34.91187 36.40313,44.66667 24.11836,26.23323 27.23559,28.99937 38.77864,34.41127 10.31299,4.83518 12.38624,5.31922 25.43219,5.93757 34.12292,1.61736 56.63933,-7.94244 115.33948,-48.96968 16.98643,-11.87231 30.88209,-21.93725 59.56728,-43.14593 5.62867,-4.1616 11.12676,-7.56656 12.21799,-7.56656 1.87689,0 10.21473,9.99504 10.21473,12.245 0,0.89945 -11.93328,10.03689 -43.33333,33.18081 -9.56203,7.04785 -41.31068,29.08403 -50.33334,34.93547 -4.21666,2.73462 -10.81666,7.02357 -14.66666,9.53097 -20.89607,13.60907 -45.349,24.02804 -64.24488,27.37364 -4.35135,0.77043 -12.90135,1.40077 -19,1.40077 -6.09866,0 -11.08846,0.4986 -11.08846,1.108 0,1.96852 39.56327,38.75768 59.525,55.35122 6.49459,5.39872 12.95132,11.10397 14.34832,12.67833 1.39699,1.57435 3.51654,2.86245 4.7101,2.86245 1.19357,0 6.35057,-3.44245 11.46002,-7.64989 z M 366,257.40157 c -1.46667,-0.59654 -11.06667,-3.35884 -21.33333,-6.13842 -10.26667,-2.7796 -19.43535,-5.74102 -20.37484,-6.58094 -2.64326,-2.3631 0.28565,-4.27478 29.70817,-19.39038 14.66667,-7.5349 27.85017,-14.50802 29.29668,-15.49582 3.58139,-2.4457 7.36999,-2.26205 7.36999,0.35727 0,2.67808 -5.814,24.38149 -10.22784,38.18005 -3.22096,10.06939 -3.41352,10.33103 -7.53878,10.2431 -2.32836,-0.0496 -5.43338,-0.57832 -6.90005,-1.17486 z m -13.64824,281.84062 c 11.52668,-2.98687 26.31328,-10.79398 46.63581,-24.62304 29.88295,-20.33474 38.9586,-26.5564 40.34576,-27.65839 1.52388,-1.2106 23.682,-16.81897 32.66667,-23.01069 3.3,-2.27416 15.3,-10.6626 26.66667,-18.64096 41.27994,-28.97478 51.54716,-33.50139 76.66666,-33.8009 16.0485,-0.19136 27.79338,2.58496 40.40196,9.55042 8.81712,4.8709 22.97507,16.3322 27.49482,22.25789 2.78584,3.65241 4.07184,4.51104 4.75905,3.17749 1.86224,-3.61377 4.07077,-24.99453 5.35351,-51.82734 0.71866,-15.03334 1.62648,-31.23334 2.01736,-36 0.39089,-4.76667 1.28145,-20.66667 1.97904,-35.33334 0.69758,-14.66666 2.45946,-49.16666 3.91529,-76.66666 1.45581,-27.5 2.81915,-58.37808 3.02963,-68.61795 l 0.38268,-18.61795 -15.33334,-1.58588 c -32.04596,-3.31441 -54.05322,-7.78149 -93.93494,-19.0671 -12.88399,-3.64587 -35.14003,-11.31079 -42.73172,-14.71668 -1.46667,-0.658 -10.84686,-4.84731 -20.84486,-9.30958 -18.1082,-8.08198 -46.3895,-23.457766 -59.97521,-32.606922 -3.92939,-2.646201 -7.53889,-4.811275 -8.02113,-4.811275 -0.48223,0 -2.8359,-1.830085 -5.23038,-4.066856 -7.69525,-7.188442 -8.15608,-7.194918 -17.0853,-0.240097 -32.59676,25.389057 -75.20428,47.75775 -116.17646,60.99194 -30.14557,9.73715 -34.58928,10.94305 -56,15.19703 -25.6359,5.09344 -43.40122,7.69374 -60.66666,8.87973 -7.33334,0.50375 -14.03959,1.47559 -14.90278,2.15964 -0.86318,0.68407 -1.32085,3.1566 -1.01704,5.49452 0.30383,2.33792 1.17506,22.25076 1.93607,44.25076 2.11372,61.10503 5.20519,138.47387 6.6596,166.66667 0.7188,13.93333 1.31079,30.80473 1.31552,37.49201 0.0133,18.46069 5.08011,42.42915 12.65065,59.84132 0.95654,2.2 2.08455,5.05 2.50671,6.33333 1.21401,3.69047 3.04823,2.79348 8.17945,-4 8.8804,-11.7572 22.59816,-24.58277 36.5256,-34.15002 17.06022,-11.71924 16.3357,-11.19851 43.71296,-31.4184 12.3383,-9.11264 32.93326,-24.15808 45.76659,-33.43431 12.83333,-9.27621 29.63333,-21.60048 37.33333,-27.38724 7.7,-5.78676 18.27627,-13.54132 23.50283,-17.23237 19.60671,-13.84646 47.80713,-34.49647 49.78223,-36.4535 8.1843,-8.10942 10.16261,-16.61617 6.11632,-26.30032 -3.24808,-7.77373 -0.89038,-9.18633 -48.47428,29.04283 -8.75087,7.03049 -13.98682,10.33333 -16.38131,10.33333 -1.93567,0 -12.45033,-3.5943 -23.36592,-7.98734 -10.9156,-4.39304 -21.22403,-7.99304 -22.90764,-8 -1.68361,-0.007 -8.70497,2.73292 -15.60303,6.08862 -20.25566,9.8538 -24.9848,17.20063 -25.0408,38.90144 -0.0187,7.23179 -0.60821,11.48394 -1.72016,12.40678 -0.93048,0.77222 -4.89048,1.221 -8.8,0.99726 l -7.10824,-0.40676 -0.21042,-14.92845 c -0.11574,-8.21064 -0.59996,-15.55875 -1.07608,-16.32911 -0.54512,-0.88204 -5.0134,-1.17022 -12.06776,-0.77832 -13.27644,0.73759 -15.32344,-0.4751 -15.29199,-9.05936 0.0333,-9.10838 0.24099,-9.20461 19.4784,-9.028 l 17.16785,0.15762 8.70404,-7.01719 c 4.78723,-3.85945 10.18723,-8.00997 12,-9.22339 4.20282,-2.8132 3.16598,-3.78524 -9.06784,-8.50102 -7.77428,-2.99678 -9.86481,-4.40607 -10.54276,-7.10724 -1.25669,-5.00706 1.59176,-64.48408 3.23498,-67.54768 1.4756,-2.75111 9.09978,-6.79463 90.33825,-47.91122 27.13333,-13.73277 49.90333,-25.51423 50.6,-26.181 2.91037,-2.78547 9.36604,-1.03646 18.58024,5.03388 9.36947,6.17263 21.83397,14.99072 29.36547,20.77478 2.13348,1.63848 5.50797,4.17904 7.49888,5.6457 23.47234,17.29162 51.57728,41.16374 57.85716,49.14342 2.96781,3.77112 6.18389,7.67932 7.14685,8.68486 2.62827,2.74455 11.55623,21.33356 13.53035,28.17172 0.95268,3.3 2.3238,7.8 3.04692,10 0.72312,2.2 1.6361,11.40142 2.02885,20.44759 1.68305,38.765 -12.23048,67.841 -42.51219,88.84045 -3.9284,2.72423 -10.44253,7.33227 -14.47586,10.24011 -4.03334,2.90784 -10.71672,7.5504 -14.85196,10.3168 -4.13524,2.76639 -9.83524,6.83773 -12.66667,9.04744 -2.83143,2.20969 -10.54804,7.70623 -17.14804,12.21449 -6.6,4.50828 -17.7,12.41138 -24.66667,17.56244 -6.96666,5.15106 -17.16666,12.63146 -22.66666,16.62311 -16.76215,12.1652 -33.07088,24.36689 -63.32023,47.37424 -15.90871,12.1 -30.96976,23.35873 -33.46901,25.01941 -2.49926,1.66068 -4.5441,4.08323 -4.5441,5.38346 0,3.20174 11.30142,14.00806 18.54318,17.73085 10.4085,5.35071 20.20385,6.28831 32.47525,3.10847 z M 636.66667,22.666667 c -0.45323,-0.733334 0.14677,-1.333334 1.33333,-1.333334 1.18656,0 1.78656,0.6 1.33333,1.333334 C 638.88011,23.4 638.28011,24 638,24 c -0.28011,0 -0.88011,-0.6 -1.33333,-1.333333 z"
       id="path997" />
  </g>
</svg>
